<?xml version="1.0" encoding="UTF-8" standalone="no"?>
<!-- Created with Inkscape (http://www.inkscape.org/) -->

<svg
   xmlns:dc="http://purl.org/dc/elements/1.1/"
   xmlns:cc="http://creativecommons.org/ns#"
   xmlns:rdf="http://www.w3.org/1999/02/22-rdf-syntax-ns#"
   xmlns:svg="http://www.w3.org/2000/svg"
   xmlns="http://www.w3.org/2000/svg"
   xmlns:sodipodi="http://sodipodi.sourceforge.net/DTD/sodipodi-0.dtd"
   xmlns:inkscape="http://www.inkscape.org/namespaces/inkscape"
   width="3840"
   height="284.89401"
   viewBox="0 0 1016 75.378209"
   version="1.1"
   id="svg6987"
   inkscape:version="0.92.3 (2405546, 2018-03-11)"
   sodipodi:docname="Horizontal-Black.svg">
  <defs
     id="defs6981">
    <filter
       inkscape:collect="always"
       style="color-interpolation-filters:sRGB"
       id="filter6430-0-1"
       x="-0.012529308"
       width="1.0250586"
       y="-0.25054482"
       height="1.5010896">
      <feGaussianBlur
         inkscape:collect="always"
         stdDeviation="0.13827386"
         id="feGaussianBlur6432-0-5" />
    </filter>
  </defs>
  <sodipodi:namedview
     id="base"
     pagecolor="#ffffff"
     bordercolor="#666666"
     borderopacity="1.0"
     inkscape:pageopacity="0.0"
     inkscape:pageshadow="2"
     inkscape:zoom="0.0875"
     inkscape:cx="2130.0968"
     inkscape:cy="-1.5514313"
     inkscape:document-units="px"
     inkscape:current-layer="layer1"
     showgrid="false"
     units="px"
     inkscape:showpageshadow="false"
     inkscape:pagecheckerboard="true"
     inkscape:snap-page="true"
     inkscape:window-width="1366"
     inkscape:window-height="706"
     inkscape:window-x="-8"
     inkscape:window-y="-8"
     inkscape:window-maximized="1" />
  <metadata
     id="metadata6984">
    <rdf:RDF>
      <cc:Work
         rdf:about="">
        <dc:format>image/svg+xml</dc:format>
        <dc:type
           rdf:resource="http://purl.org/dc/dcmitype/StillImage" />
        <dc:title />
      </cc:Work>
    </rdf:RDF>
  </metadata>
  <g
     inkscape:label="Layer 1"
     inkscape:groupmode="layer"
     id="layer1"
     transform="translate(0,-221.62182)">
    <g
       transform="matrix(37.655458,0,0,37.655458,-4408.7316,-5844.1403)"
       id="g6914">
      <g
         id="text6420-0"
         style="font-style:normal;font-variant:normal;font-weight:800;font-stretch:normal;font-size:1.83200896px;line-height:1.25;font-family:Nunito;-inkscape-font-specification:'Nunito Ultra-Bold';text-align:start;letter-spacing:0.79644251px;word-spacing:0px;text-anchor:start;opacity:0.3;fill:#000000;fill-opacity:1;stroke:#000000;stroke-width:0.13229166;stroke-miterlimit:4;stroke-dasharray:none;stroke-opacity:1;filter:url(#filter6430-0-1)"
         transform="matrix(0.99378814,0,0,1.0062507,-48.94617,-117.93641)"
         aria-label="SMOG ALERT APP">
        <path
           inkscape:connector-curvature="0"
           id="path7140"
           style="font-style:normal;font-variant:normal;font-weight:800;font-stretch:normal;font-family:Nunito;-inkscape-font-specification:'Nunito Ultra-Bold';text-align:start;letter-spacing:0.79644251px;text-anchor:start;fill:#000000;fill-opacity:1;stroke:#000000;stroke-width:0.13229166;stroke-miterlimit:4;stroke-dasharray:none;stroke-opacity:1"
           d="m 167.92058,278.94587 q -0.14473,0 -0.2693,-0.033 -0.12458,-0.0348 -0.20336,-0.0971 -0.0275,-0.0202 -0.0403,-0.0421 -0.011,-0.0238 -0.011,-0.0586 0,-0.0458 0.0275,-0.0806 0.0293,-0.0348 0.0659,-0.0348 0.0202,0 0.0385,0.007 0.0202,0.005 0.0476,0.022 0.0788,0.0495 0.15939,0.0733 0.0806,0.022 0.1777,0.022 0.12092,0 0.18504,-0.0403 0.0641,-0.0403 0.0641,-0.11541 0,-0.0568 -0.0605,-0.0916 -0.0586,-0.0348 -0.21068,-0.066 -0.17038,-0.0348 -0.27297,-0.0843 -0.10076,-0.0495 -0.14839,-0.12274 -0.0458,-0.0733 -0.0458,-0.17771 0,-0.11541 0.0659,-0.20702 0.0678,-0.0934 0.18503,-0.14472 0.11908,-0.0531 0.26748,-0.0531 0.26014,0 0.42869,0.13007 0.0275,0.022 0.0385,0.0458 0.0128,0.022 0.0128,0.055 0,0.0458 -0.0293,0.0806 -0.0275,0.0348 -0.0641,0.0348 -0.0202,0 -0.0385,-0.005 -0.0165,-0.005 -0.0476,-0.0238 -0.0751,-0.0476 -0.13924,-0.0714 -0.0623,-0.0238 -0.15938,-0.0238 -0.11175,0 -0.17587,0.044 -0.0641,0.0421 -0.0641,0.11725 0,0.044 0.0238,0.0733 0.0257,0.0275 0.0824,0.0495 0.0586,0.022 0.16488,0.0458 0.24916,0.055 0.35724,0.14107 0.10992,0.0861 0.10992,0.23633 0,0.11725 -0.066,0.20701 -0.0641,0.0898 -0.1832,0.13924 -0.11725,0.0495 -0.27297,0.0495 z" />
        <path
           inkscape:connector-curvature="0"
           id="path7142"
           style="font-style:normal;font-variant:normal;font-weight:800;font-stretch:normal;font-family:Nunito;-inkscape-font-specification:'Nunito Ultra-Bold';text-align:start;letter-spacing:0.79644251px;text-anchor:start;fill:#000000;fill-opacity:1;stroke:#000000;stroke-width:0.13229166;stroke-miterlimit:4;stroke-dasharray:none;stroke-opacity:1"
           d="m 170.59005,277.62866 q 0.0605,0 0.0971,0.0403 0.0385,0.0385 0.0385,0.10076 v 1.04058 q 0,0.0605 -0.0348,0.0953 -0.0348,0.0348 -0.0916,0.0348 -0.055,0 -0.0898,-0.0348 -0.0348,-0.0348 -0.0348,-0.0953 v -0.6467 l -0.26015,0.48915 q -0.0257,0.0476 -0.0568,0.0696 -0.0293,0.022 -0.0714,0.022 -0.0403,0 -0.0714,-0.022 -0.0311,-0.022 -0.0568,-0.0696 l -0.26015,-0.47999 v 0.63754 q 0,0.0586 -0.0348,0.0953 -0.0348,0.0348 -0.0916,0.0348 -0.055,0 -0.0898,-0.0348 -0.0348,-0.0348 -0.0348,-0.0953 v -1.04058 q 0,-0.0623 0.0366,-0.10076 0.0385,-0.0403 0.0989,-0.0403 0.0879,0 0.13373,0.0934 l 0.3719,0.70532 0.37007,-0.70532 q 0.0495,-0.0934 0.1319,-0.0934 z" />
        <path
           inkscape:connector-curvature="0"
           id="path7144"
           style="font-style:normal;font-variant:normal;font-weight:800;font-stretch:normal;font-family:Nunito;-inkscape-font-specification:'Nunito Ultra-Bold';text-align:start;letter-spacing:0.79644251px;text-anchor:start;fill:#000000;fill-opacity:1;stroke:#000000;stroke-width:0.13229166;stroke-miterlimit:4;stroke-dasharray:none;stroke-opacity:1"
           d="m 172.37541,278.94587 q -0.19236,0 -0.33526,-0.0806 -0.14106,-0.0824 -0.21801,-0.23083 -0.0769,-0.15023 -0.0769,-0.35175 0,-0.20152 0.0769,-0.34991 0.077,-0.15023 0.21801,-0.23083 0.1429,-0.0806 0.33526,-0.0806 0.19236,0 0.33342,0.0806 0.1429,0.0806 0.21985,0.23083 0.0769,0.14839 0.0769,0.34991 0,0.20152 -0.0769,0.35175 -0.077,0.14839 -0.21985,0.23083 -0.14106,0.0806 -0.33342,0.0806 z m 0,-0.22167 q 0.16122,0 0.25282,-0.11359 0.0934,-0.11358 0.0934,-0.32793 0,-0.21434 -0.0916,-0.32609 -0.0916,-0.11359 -0.25465,-0.11359 -0.16305,0 -0.25465,0.11359 -0.0898,0.11175 -0.0898,0.32609 0,0.21435 0.0916,0.32793 0.0916,0.11359 0.25282,0.11359 z" />
        <path
           inkscape:connector-curvature="0"
           id="path7146"
           style="font-style:normal;font-variant:normal;font-weight:800;font-stretch:normal;font-family:Nunito;-inkscape-font-specification:'Nunito Ultra-Bold';text-align:start;letter-spacing:0.79644251px;text-anchor:start;fill:#000000;fill-opacity:1;stroke:#000000;stroke-width:0.13229166;stroke-miterlimit:4;stroke-dasharray:none;stroke-opacity:1"
           d="m 175.01872,278.21673 q 0.0513,0 0.0806,0.0293 0.0311,0.0275 0.0311,0.077 v 0.35724 q 0,0.0733 -0.0128,0.11358 -0.011,0.0403 -0.0403,0.0641 -0.0293,0.0238 -0.0879,0.0403 -0.0714,0.022 -0.16488,0.0348 -0.0916,0.0128 -0.17404,0.0128 -0.20518,0 -0.35541,-0.0788 -0.15022,-0.0806 -0.23083,-0.229 -0.0806,-0.15022 -0.0806,-0.35541 0,-0.20152 0.0788,-0.34991 0.0806,-0.15023 0.229,-0.23083 0.14839,-0.0806 0.34625,-0.0806 0.25465,0 0.42136,0.1319 0.0275,0.022 0.0385,0.044 0.011,0.022 0.011,0.055 0,0.0476 -0.0275,0.0824 -0.0256,0.033 -0.0623,0.033 -0.0238,0 -0.044,-0.007 -0.0183,-0.007 -0.0458,-0.0238 -0.0769,-0.0476 -0.14107,-0.0678 -0.0641,-0.0202 -0.14106,-0.0202 -0.37373,0 -0.37373,0.43418 0,0.22351 0.0971,0.33343 0.0971,0.10992 0.29312,0.10992 0.10625,0 0.21068,-0.0275 v -0.28396 h -0.16855 q -0.0531,0 -0.0824,-0.0256 -0.0293,-0.0256 -0.0293,-0.0733 0,-0.0476 0.0293,-0.0733 0.0293,-0.0257 0.0824,-0.0257 z" />
        <path
           inkscape:connector-curvature="0"
           id="path7148"
           style="font-style:normal;font-variant:normal;font-weight:800;font-stretch:normal;font-family:Nunito;-inkscape-font-specification:'Nunito Ultra-Bold';text-align:start;letter-spacing:0.79644251px;text-anchor:start;fill:#000000;fill-opacity:1;stroke:#000000;stroke-width:0.13229166;stroke-miterlimit:4;stroke-dasharray:none;stroke-opacity:1"
           d="m 178.681,278.75534 q 0.0147,0.033 0.0147,0.0586 0,0.0513 -0.0421,0.0879 -0.0403,0.0348 -0.0934,0.0348 -0.0348,0 -0.066,-0.0183 -0.0311,-0.0202 -0.0476,-0.0586 l -0.0971,-0.21618 h -0.62106 l -0.0971,0.21618 q -0.0165,0.0385 -0.0476,0.0586 -0.0293,0.0183 -0.066,0.0183 -0.0531,0 -0.0953,-0.0348 -0.0421,-0.0366 -0.0421,-0.0879 0,-0.0256 0.0147,-0.0586 l 0.49464,-1.03875 q 0.0202,-0.044 0.0605,-0.0659 0.0403,-0.0238 0.0861,-0.0238 0.0476,0 0.0879,0.0238 0.0403,0.0238 0.0623,0.0659 z m -0.85555,-0.32793 h 0.42686 l -0.21251,-0.47632 z" />
        <path
           inkscape:connector-curvature="0"
           id="path7150"
           style="font-style:normal;font-variant:normal;font-weight:800;font-stretch:normal;font-family:Nunito;-inkscape-font-specification:'Nunito Ultra-Bold';text-align:start;letter-spacing:0.79644251px;text-anchor:start;fill:#000000;fill-opacity:1;stroke:#000000;stroke-width:0.13229166;stroke-miterlimit:4;stroke-dasharray:none;stroke-opacity:1"
           d="m 179.78513,278.92938 q -0.0641,0 -0.0989,-0.0348 -0.0348,-0.0348 -0.0348,-0.0989 v -1.02593 q 0,-0.0641 0.0385,-0.10259 0.0385,-0.0385 0.10442,-0.0385 0.066,0 0.10443,0.0385 0.0385,0.0385 0.0385,0.10259 v 0.927 h 0.46899 q 0.13374,0 0.13374,0.11725 0,0.11541 -0.13374,0.11541 z" />
        <path
           inkscape:connector-curvature="0"
           id="path7152"
           style="font-style:normal;font-variant:normal;font-weight:800;font-stretch:normal;font-family:Nunito;-inkscape-font-specification:'Nunito Ultra-Bold';text-align:start;letter-spacing:0.79644251px;text-anchor:start;fill:#000000;fill-opacity:1;stroke:#000000;stroke-width:0.13229166;stroke-miterlimit:4;stroke-dasharray:none;stroke-opacity:1"
           d="m 181.61208,278.92938 q -0.0641,0 -0.0989,-0.0348 -0.0348,-0.0348 -0.0348,-0.0989 v -1.0241 q 0,-0.0641 0.0348,-0.0989 0.0348,-0.0348 0.0989,-0.0348 h 0.64853 q 0.13557,0 0.13557,0.10992 0,0.11175 -0.13557,0.11175 h -0.5038 v 0.30228 h 0.46716 q 0.13557,0 0.13557,0.11175 0,0.10992 -0.13557,0.10992 h -0.46716 v 0.32427 h 0.5038 q 0.13557,0 0.13557,0.11175 0,0.10992 -0.13557,0.10992 z" />
        <path
           inkscape:connector-curvature="0"
           id="path7154"
           style="font-style:normal;font-variant:normal;font-weight:800;font-stretch:normal;font-family:Nunito;-inkscape-font-specification:'Nunito Ultra-Bold';text-align:start;letter-spacing:0.79644251px;text-anchor:start;fill:#000000;fill-opacity:1;stroke:#000000;stroke-width:0.13229166;stroke-miterlimit:4;stroke-dasharray:none;stroke-opacity:1"
           d="m 184.42144,278.74801 q 0.0275,0.0403 0.0275,0.0788 0,0.0513 -0.0421,0.0843 -0.0403,0.033 -0.0953,0.033 -0.0348,0 -0.0678,-0.0165 -0.033,-0.0165 -0.055,-0.0513 l -0.24183,-0.35907 q -0.0311,-0.0476 -0.0659,-0.0678 -0.0348,-0.022 -0.0879,-0.022 h -0.14839 v 0.37007 q 0,0.0659 -0.0385,0.10442 -0.0366,0.0385 -0.10076,0.0385 -0.0659,0 -0.10443,-0.0385 -0.0385,-0.0385 -0.0385,-0.10442 v -1.02593 q 0,-0.0641 0.0348,-0.0989 0.0348,-0.0348 0.0989,-0.0348 h 0.45983 q 0.22717,0 0.34259,0.10076 0.11725,0.0989 0.11725,0.28762 0,0.14839 -0.0824,0.24732 -0.0824,0.0989 -0.23267,0.13008 0.055,0.011 0.0971,0.044 0.044,0.0311 0.0843,0.0916 z m -0.50746,-0.53678 q 0.12274,0 0.1777,-0.0421 0.055,-0.044 0.055,-0.13557 0,-0.0934 -0.055,-0.13557 -0.055,-0.0421 -0.1777,-0.0421 h -0.27297 v 0.3554 z" />
        <path
           inkscape:connector-curvature="0"
           id="path7156"
           style="font-style:normal;font-variant:normal;font-weight:800;font-stretch:normal;font-family:Nunito;-inkscape-font-specification:'Nunito Ultra-Bold';text-align:start;letter-spacing:0.79644251px;text-anchor:start;fill:#000000;fill-opacity:1;stroke:#000000;stroke-width:0.13229166;stroke-miterlimit:4;stroke-dasharray:none;stroke-opacity:1"
           d="m 185.84927,278.93854 q -0.0641,0 -0.10443,-0.0385 -0.0385,-0.0385 -0.0385,-0.10259 v -0.927 h -0.29678 q -0.13557,0 -0.13557,-0.11725 0,-0.11541 0.13557,-0.11541 h 0.87936 q 0.13557,0 0.13557,0.11541 0,0.11725 -0.13557,0.11725 h -0.29678 v 0.927 q 0,0.0641 -0.0385,0.10259 -0.0385,0.0385 -0.10442,0.0385 z" />
        <path
           inkscape:connector-curvature="0"
           id="path7158"
           style="font-style:normal;font-variant:normal;font-weight:800;font-stretch:normal;font-family:Nunito;-inkscape-font-specification:'Nunito Ultra-Bold';text-align:start;letter-spacing:0.79644251px;text-anchor:start;fill:#000000;fill-opacity:1;stroke:#000000;stroke-width:0.13229166;stroke-miterlimit:4;stroke-dasharray:none;stroke-opacity:1"
           d="m 189.85379,278.75534 q 0.0147,0.033 0.0147,0.0586 0,0.0513 -0.0421,0.0879 -0.0403,0.0348 -0.0934,0.0348 -0.0348,0 -0.0659,-0.0183 -0.0311,-0.0202 -0.0476,-0.0586 l -0.0971,-0.21618 h -0.62105 l -0.0971,0.21618 q -0.0165,0.0385 -0.0476,0.0586 -0.0293,0.0183 -0.0659,0.0183 -0.0531,0 -0.0953,-0.0348 -0.0421,-0.0366 -0.0421,-0.0879 0,-0.0256 0.0147,-0.0586 l 0.49465,-1.03875 q 0.0202,-0.044 0.0605,-0.0659 0.0403,-0.0238 0.0861,-0.0238 0.0476,0 0.0879,0.0238 0.0403,0.0238 0.0623,0.0659 z m -0.85554,-0.32793 h 0.42685 l -0.21251,-0.47632 z" />
        <path
           inkscape:connector-curvature="0"
           id="path7160"
           style="font-style:normal;font-variant:normal;font-weight:800;font-stretch:normal;font-family:Nunito;-inkscape-font-specification:'Nunito Ultra-Bold';text-align:start;letter-spacing:0.79644251px;text-anchor:start;fill:#000000;fill-opacity:1;stroke:#000000;stroke-width:0.13229166;stroke-miterlimit:4;stroke-dasharray:none;stroke-opacity:1"
           d="m 190.96709,278.94037 q -0.066,0 -0.10443,-0.0385 -0.0385,-0.0385 -0.0385,-0.10442 v -1.02593 q 0,-0.0641 0.0348,-0.0989 0.0348,-0.0348 0.0989,-0.0348 h 0.45983 q 0.21068,0 0.32793,0.10625 0.11725,0.10626 0.11725,0.29679 0,0.19053 -0.11725,0.29678 -0.11725,0.10626 -0.32793,0.10626 h -0.30777 v 0.35358 q 0,0.0659 -0.0385,0.10442 -0.0385,0.0385 -0.10442,0.0385 z m 0.41403,-0.71265 q 0.21435,0 0.21435,-0.18503 0,-0.18686 -0.21435,-0.18686 h -0.27113 v 0.37189 z" />
        <path
           inkscape:connector-curvature="0"
           id="path7162"
           style="font-style:normal;font-variant:normal;font-weight:800;font-stretch:normal;font-family:Nunito;-inkscape-font-specification:'Nunito Ultra-Bold';text-align:start;letter-spacing:0.79644251px;text-anchor:start;fill:#000000;fill-opacity:1;stroke:#000000;stroke-width:0.13229166;stroke-miterlimit:4;stroke-dasharray:none;stroke-opacity:1"
           d="m 192.98726,278.94037 q -0.066,0 -0.10443,-0.0385 -0.0385,-0.0385 -0.0385,-0.10442 v -1.02593 q 0,-0.0641 0.0348,-0.0989 0.0348,-0.0348 0.0989,-0.0348 h 0.45983 q 0.21068,0 0.32793,0.10625 0.11725,0.10626 0.11725,0.29679 0,0.19053 -0.11725,0.29678 -0.11725,0.10626 -0.32793,0.10626 h -0.30778 v 0.35358 q 0,0.0659 -0.0385,0.10442 -0.0385,0.0385 -0.10442,0.0385 z m 0.41403,-0.71265 q 0.21434,0 0.21434,-0.18503 0,-0.18686 -0.21434,-0.18686 h -0.27114 v 0.37189 z" />
      </g>
      <g
         id="text5440-4"
         style="font-style:normal;font-variant:normal;font-weight:800;font-stretch:normal;font-size:1.83200896px;line-height:1.25;font-family:Nunito;-inkscape-font-specification:'Nunito Ultra-Bold';text-align:start;letter-spacing:0.79644251px;word-spacing:0px;text-anchor:start;fill:#1a1a1a;fill-opacity:1;stroke:#1a1a1a;stroke-width:0.13229166;stroke-miterlimit:4;stroke-dasharray:none;stroke-opacity:1"
         transform="matrix(0.99378813,0,0,1.0062507,-180.843,-117.67023)"
         aria-label="SMOG ALERT APP">
        <path
           inkscape:connector-curvature="0"
           id="path7115"
           style="font-style:normal;font-variant:normal;font-weight:800;font-stretch:normal;font-family:Nunito;-inkscape-font-specification:'Nunito Ultra-Bold';text-align:start;letter-spacing:0.79644251px;text-anchor:start;fill:#1a1a1a;fill-opacity:1;stroke:#1a1a1a;stroke-width:0.13229166;stroke-miterlimit:4;stroke-dasharray:none;stroke-opacity:1"
           d="m 300.64185,278.41837 q -0.14473,0 -0.26931,-0.033 -0.12457,-0.0348 -0.20335,-0.0971 -0.0275,-0.0202 -0.0403,-0.0421 -0.011,-0.0238 -0.011,-0.0586 0,-0.0458 0.0275,-0.0806 0.0293,-0.0348 0.0659,-0.0348 0.0202,0 0.0385,0.007 0.0202,0.005 0.0476,0.022 0.0788,0.0495 0.15939,0.0733 0.0806,0.022 0.1777,0.022 0.12091,0 0.18503,-0.0403 0.0641,-0.0403 0.0641,-0.11542 0,-0.0568 -0.0605,-0.0916 -0.0586,-0.0348 -0.21068,-0.066 -0.17038,-0.0348 -0.27297,-0.0843 -0.10076,-0.0495 -0.14839,-0.12275 -0.0458,-0.0733 -0.0458,-0.1777 0,-0.11542 0.0659,-0.20702 0.0678,-0.0934 0.18503,-0.14473 0.11908,-0.0531 0.26747,-0.0531 0.26015,0 0.42869,0.13007 0.0275,0.022 0.0385,0.0458 0.0128,0.022 0.0128,0.055 0,0.0458 -0.0293,0.0806 -0.0275,0.0348 -0.0641,0.0348 -0.0202,0 -0.0385,-0.005 -0.0165,-0.006 -0.0476,-0.0238 -0.0751,-0.0476 -0.13923,-0.0715 -0.0623,-0.0238 -0.15938,-0.0238 -0.11176,0 -0.17588,0.044 -0.0641,0.0421 -0.0641,0.11725 0,0.044 0.0238,0.0733 0.0256,0.0275 0.0824,0.0495 0.0586,0.022 0.16488,0.0458 0.24915,0.055 0.35724,0.14106 0.10992,0.0861 0.10992,0.23633 0,0.11725 -0.0659,0.20702 -0.0641,0.0898 -0.1832,0.13923 -0.11725,0.0495 -0.27297,0.0495 z" />
        <path
           inkscape:connector-curvature="0"
           id="path7117"
           style="font-style:normal;font-variant:normal;font-weight:800;font-stretch:normal;font-family:Nunito;-inkscape-font-specification:'Nunito Ultra-Bold';text-align:start;letter-spacing:0.79644251px;text-anchor:start;fill:#1a1a1a;fill-opacity:1;stroke:#1a1a1a;stroke-width:0.13229166;stroke-miterlimit:4;stroke-dasharray:none;stroke-opacity:1"
           d="m 303.31132,277.10116 q 0.0605,0 0.0971,0.0403 0.0385,0.0385 0.0385,0.10076 v 1.04059 q 0,0.0605 -0.0348,0.0953 -0.0348,0.0348 -0.0916,0.0348 -0.055,0 -0.0898,-0.0348 -0.0348,-0.0348 -0.0348,-0.0953 v -0.6467 l -0.26014,0.48914 q -0.0257,0.0476 -0.0568,0.0696 -0.0293,0.022 -0.0714,0.022 -0.0403,0 -0.0715,-0.022 -0.0311,-0.022 -0.0568,-0.0696 l -0.26015,-0.47998 v 0.63754 q 0,0.0586 -0.0348,0.0953 -0.0348,0.0348 -0.0916,0.0348 -0.055,0 -0.0898,-0.0348 -0.0348,-0.0348 -0.0348,-0.0953 v -1.04059 q 0,-0.0623 0.0366,-0.10076 0.0385,-0.0403 0.0989,-0.0403 0.0879,0 0.13373,0.0934 l 0.3719,0.70533 0.37007,-0.70533 q 0.0495,-0.0934 0.1319,-0.0934 z" />
        <path
           inkscape:connector-curvature="0"
           id="path7119"
           style="font-style:normal;font-variant:normal;font-weight:800;font-stretch:normal;font-family:Nunito;-inkscape-font-specification:'Nunito Ultra-Bold';text-align:start;letter-spacing:0.79644251px;text-anchor:start;fill:#1a1a1a;fill-opacity:1;stroke:#1a1a1a;stroke-width:0.13229166;stroke-miterlimit:4;stroke-dasharray:none;stroke-opacity:1"
           d="m 305.09668,278.41837 q -0.19236,0 -0.33526,-0.0806 -0.14107,-0.0824 -0.21801,-0.23084 -0.0769,-0.15022 -0.0769,-0.35174 0,-0.20152 0.0769,-0.34992 0.0769,-0.15022 0.21801,-0.23083 0.1429,-0.0806 0.33526,-0.0806 0.19236,0 0.33342,0.0806 0.1429,0.0806 0.21984,0.23083 0.077,0.1484 0.077,0.34992 0,0.20152 -0.077,0.35174 -0.0769,0.1484 -0.21984,0.23084 -0.14106,0.0806 -0.33342,0.0806 z m 0,-0.22167 q 0.16121,0 0.25281,-0.11358 0.0934,-0.11359 0.0934,-0.32793 0,-0.21435 -0.0916,-0.3261 -0.0916,-0.11359 -0.25465,-0.11359 -0.16305,0 -0.25465,0.11359 -0.0898,0.11175 -0.0898,0.3261 0,0.21434 0.0916,0.32793 0.0916,0.11358 0.25282,0.11358 z" />
        <path
           inkscape:connector-curvature="0"
           id="path7121"
           style="font-style:normal;font-variant:normal;font-weight:800;font-stretch:normal;font-family:Nunito;-inkscape-font-specification:'Nunito Ultra-Bold';text-align:start;letter-spacing:0.79644251px;text-anchor:start;fill:#1a1a1a;fill-opacity:1;stroke:#1a1a1a;stroke-width:0.13229166;stroke-miterlimit:4;stroke-dasharray:none;stroke-opacity:1"
           d="m 307.73998,277.68923 q 0.0513,0 0.0806,0.0293 0.0312,0.0275 0.0312,0.0769 v 0.35724 q 0,0.0733 -0.0128,0.11359 -0.011,0.0403 -0.0403,0.0641 -0.0293,0.0238 -0.0879,0.0403 -0.0714,0.022 -0.16488,0.0348 -0.0916,0.0128 -0.17404,0.0128 -0.20518,0 -0.35541,-0.0788 -0.15022,-0.0806 -0.23083,-0.229 -0.0806,-0.15023 -0.0806,-0.35541 0,-0.20152 0.0788,-0.34992 0.0806,-0.15022 0.229,-0.23083 0.14839,-0.0806 0.34625,-0.0806 0.25465,0 0.42136,0.13191 0.0275,0.022 0.0385,0.044 0.011,0.022 0.011,0.055 0,0.0476 -0.0275,0.0824 -0.0257,0.033 -0.0623,0.033 -0.0238,0 -0.044,-0.007 -0.0183,-0.007 -0.0458,-0.0238 -0.077,-0.0476 -0.14107,-0.0678 -0.0641,-0.0202 -0.14106,-0.0202 -0.37373,0 -0.37373,0.43419 0,0.2235 0.0971,0.33342 0.0971,0.10992 0.29312,0.10992 0.10626,0 0.21069,-0.0275 v -0.28396 h -0.16855 q -0.0531,0 -0.0824,-0.0256 -0.0293,-0.0256 -0.0293,-0.0733 0,-0.0476 0.0293,-0.0733 0.0293,-0.0256 0.0824,-0.0256 z" />
        <path
           inkscape:connector-curvature="0"
           id="path7123"
           style="font-style:normal;font-variant:normal;font-weight:800;font-stretch:normal;font-family:Nunito;-inkscape-font-specification:'Nunito Ultra-Bold';text-align:start;letter-spacing:0.79644251px;text-anchor:start;fill:#1a1a1a;fill-opacity:1;stroke:#1a1a1a;stroke-width:0.13229166;stroke-miterlimit:4;stroke-dasharray:none;stroke-opacity:1"
           d="m 311.40227,278.22785 q 0.0147,0.033 0.0147,0.0586 0,0.0513 -0.0421,0.0879 -0.0403,0.0348 -0.0934,0.0348 -0.0348,0 -0.0659,-0.0183 -0.0311,-0.0202 -0.0476,-0.0586 l -0.0971,-0.21618 h -0.62105 l -0.0971,0.21618 q -0.0165,0.0385 -0.0476,0.0586 -0.0293,0.0183 -0.0659,0.0183 -0.0531,0 -0.0953,-0.0348 -0.0421,-0.0366 -0.0421,-0.0879 0,-0.0256 0.0147,-0.0586 l 0.49464,-1.03875 q 0.0202,-0.044 0.0605,-0.066 0.0403,-0.0238 0.0861,-0.0238 0.0476,0 0.0879,0.0238 0.0403,0.0238 0.0623,0.066 z m -0.85555,-0.32793 h 0.42686 l -0.21252,-0.47633 z" />
        <path
           inkscape:connector-curvature="0"
           id="path7125"
           style="font-style:normal;font-variant:normal;font-weight:800;font-stretch:normal;font-family:Nunito;-inkscape-font-specification:'Nunito Ultra-Bold';text-align:start;letter-spacing:0.79644251px;text-anchor:start;fill:#1a1a1a;fill-opacity:1;stroke:#1a1a1a;stroke-width:0.13229166;stroke-miterlimit:4;stroke-dasharray:none;stroke-opacity:1"
           d="m 312.5064,278.40189 q -0.0641,0 -0.0989,-0.0348 -0.0348,-0.0348 -0.0348,-0.0989 v -1.02593 q 0,-0.0641 0.0385,-0.10259 0.0385,-0.0385 0.10442,-0.0385 0.0659,0 0.10442,0.0385 0.0385,0.0385 0.0385,0.10259 v 0.927 h 0.46899 q 0.13374,0 0.13374,0.11725 0,0.11542 -0.13374,0.11542 z" />
        <path
           inkscape:connector-curvature="0"
           id="path7127"
           style="font-style:normal;font-variant:normal;font-weight:800;font-stretch:normal;font-family:Nunito;-inkscape-font-specification:'Nunito Ultra-Bold';text-align:start;letter-spacing:0.79644251px;text-anchor:start;fill:#1a1a1a;fill-opacity:1;stroke:#1a1a1a;stroke-width:0.13229166;stroke-miterlimit:4;stroke-dasharray:none;stroke-opacity:1"
           d="m 314.33335,278.40189 q -0.0641,0 -0.0989,-0.0348 -0.0348,-0.0348 -0.0348,-0.0989 v -1.02409 q 0,-0.0641 0.0348,-0.0989 0.0348,-0.0348 0.0989,-0.0348 h 0.64853 q 0.13557,0 0.13557,0.10992 0,0.11175 -0.13557,0.11175 h -0.5038 v 0.30228 h 0.46716 q 0.13557,0 0.13557,0.11176 0,0.10992 -0.13557,0.10992 h -0.46716 v 0.32426 h 0.5038 q 0.13557,0 0.13557,0.11176 0,0.10992 -0.13557,0.10992 z" />
        <path
           inkscape:connector-curvature="0"
           id="path7129"
           style="font-style:normal;font-variant:normal;font-weight:800;font-stretch:normal;font-family:Nunito;-inkscape-font-specification:'Nunito Ultra-Bold';text-align:start;letter-spacing:0.79644251px;text-anchor:start;fill:#1a1a1a;fill-opacity:1;stroke:#1a1a1a;stroke-width:0.13229166;stroke-miterlimit:4;stroke-dasharray:none;stroke-opacity:1"
           d="m 317.14271,278.22052 q 0.0275,0.0403 0.0275,0.0788 0,0.0513 -0.0421,0.0843 -0.0403,0.033 -0.0953,0.033 -0.0348,0 -0.0678,-0.0165 -0.033,-0.0165 -0.055,-0.0513 l -0.24182,-0.35908 q -0.0311,-0.0476 -0.066,-0.0678 -0.0348,-0.022 -0.0879,-0.022 H 316.3659 V 278.27 q 0,0.066 -0.0385,0.10443 -0.0366,0.0385 -0.10076,0.0385 -0.066,0 -0.10443,-0.0385 -0.0385,-0.0385 -0.0385,-0.10443 v -1.02592 q 0,-0.0641 0.0348,-0.0989 0.0348,-0.0348 0.0989,-0.0348 h 0.45983 q 0.22717,0 0.34259,0.10076 0.11724,0.0989 0.11724,0.28763 0,0.14839 -0.0824,0.24732 -0.0824,0.0989 -0.23266,0.13007 0.055,0.011 0.0971,0.044 0.044,0.0311 0.0843,0.0916 z m -0.50747,-0.53678 q 0.12275,0 0.17771,-0.0421 0.055,-0.044 0.055,-0.13557 0,-0.0934 -0.055,-0.13557 -0.055,-0.0421 -0.17771,-0.0421 h -0.27297 v 0.35541 z" />
        <path
           inkscape:connector-curvature="0"
           id="path7131"
           style="font-style:normal;font-variant:normal;font-weight:800;font-stretch:normal;font-family:Nunito;-inkscape-font-specification:'Nunito Ultra-Bold';text-align:start;letter-spacing:0.79644251px;text-anchor:start;fill:#1a1a1a;fill-opacity:1;stroke:#1a1a1a;stroke-width:0.13229166;stroke-miterlimit:4;stroke-dasharray:none;stroke-opacity:1"
           d="m 318.57054,278.41105 q -0.0641,0 -0.10443,-0.0385 -0.0385,-0.0385 -0.0385,-0.10259 v -0.927 h -0.29679 q -0.13556,0 -0.13556,-0.11724 0,-0.11542 0.13556,-0.11542 h 0.87937 q 0.13557,0 0.13557,0.11542 0,0.11724 -0.13557,0.11724 h -0.29679 v 0.927 q 0,0.0641 -0.0385,0.10259 -0.0385,0.0385 -0.10442,0.0385 z" />
        <path
           inkscape:connector-curvature="0"
           id="path7133"
           style="font-style:normal;font-variant:normal;font-weight:800;font-stretch:normal;font-family:Nunito;-inkscape-font-specification:'Nunito Ultra-Bold';text-align:start;letter-spacing:0.79644251px;text-anchor:start;fill:#1a1a1a;fill-opacity:1;stroke:#1a1a1a;stroke-width:0.13229166;stroke-miterlimit:4;stroke-dasharray:none;stroke-opacity:1"
           d="m 322.57506,278.22785 q 0.0147,0.033 0.0147,0.0586 0,0.0513 -0.0421,0.0879 -0.0403,0.0348 -0.0934,0.0348 -0.0348,0 -0.066,-0.0183 -0.0311,-0.0202 -0.0476,-0.0586 l -0.0971,-0.21618 h -0.62105 l -0.0971,0.21618 q -0.0165,0.0385 -0.0476,0.0586 -0.0293,0.0183 -0.0659,0.0183 -0.0531,0 -0.0953,-0.0348 -0.0421,-0.0366 -0.0421,-0.0879 0,-0.0256 0.0147,-0.0586 l 0.49464,-1.03875 q 0.0202,-0.044 0.0605,-0.066 0.0403,-0.0238 0.0861,-0.0238 0.0476,0 0.0879,0.0238 0.0403,0.0238 0.0623,0.066 z m -0.85555,-0.32793 h 0.42686 l -0.21251,-0.47633 z" />
        <path
           inkscape:connector-curvature="0"
           id="path7135"
           style="font-style:normal;font-variant:normal;font-weight:800;font-stretch:normal;font-family:Nunito;-inkscape-font-specification:'Nunito Ultra-Bold';text-align:start;letter-spacing:0.79644251px;text-anchor:start;fill:#1a1a1a;fill-opacity:1;stroke:#1a1a1a;stroke-width:0.13229166;stroke-miterlimit:4;stroke-dasharray:none;stroke-opacity:1"
           d="m 323.68836,278.41288 q -0.066,0 -0.10443,-0.0385 -0.0385,-0.0385 -0.0385,-0.10443 v -1.02592 q 0,-0.0641 0.0348,-0.0989 0.0348,-0.0348 0.0989,-0.0348 h 0.45983 q 0.21068,0 0.32793,0.10626 0.11725,0.10625 0.11725,0.29678 0,0.19053 -0.11725,0.29679 -0.11725,0.10625 -0.32793,0.10625 h -0.30778 v 0.35358 q 0,0.066 -0.0385,0.10443 -0.0385,0.0385 -0.10442,0.0385 z m 0.41403,-0.71265 q 0.21435,0 0.21435,-0.18504 0,-0.18686 -0.21435,-0.18686 h -0.27114 v 0.3719 z" />
        <path
           inkscape:connector-curvature="0"
           id="path7137"
           style="font-style:normal;font-variant:normal;font-weight:800;font-stretch:normal;font-family:Nunito;-inkscape-font-specification:'Nunito Ultra-Bold';text-align:start;letter-spacing:0.79644251px;text-anchor:start;fill:#1a1a1a;fill-opacity:1;stroke:#1a1a1a;stroke-width:0.13229166;stroke-miterlimit:4;stroke-dasharray:none;stroke-opacity:1"
           d="m 325.70852,278.41288 q -0.066,0 -0.10442,-0.0385 -0.0385,-0.0385 -0.0385,-0.10443 v -1.02592 q 0,-0.0641 0.0348,-0.0989 0.0348,-0.0348 0.0989,-0.0348 h 0.45984 q 0.21068,0 0.32793,0.10626 0.11725,0.10625 0.11725,0.29678 0,0.19053 -0.11725,0.29679 -0.11725,0.10625 -0.32793,0.10625 h -0.30778 v 0.35358 q 0,0.066 -0.0385,0.10443 -0.0385,0.0385 -0.10443,0.0385 z m 0.41404,-0.71265 q 0.21434,0 0.21434,-0.18504 0,-0.18686 -0.21434,-0.18686 h -0.27114 v 0.3719 z" />
      </g>
    </g>
  </g>
</svg>
