<?xml version="1.0" encoding="UTF-8" standalone="no"?>
<!-- Created with Inkscape (http://www.inkscape.org/) -->

<svg
   xmlns:dc="http://purl.org/dc/elements/1.1/"
   xmlns:cc="http://creativecommons.org/ns#"
   xmlns:rdf="http://www.w3.org/1999/02/22-rdf-syntax-ns#"
   xmlns:svg="http://www.w3.org/2000/svg"
   xmlns="http://www.w3.org/2000/svg"
   xmlns:sodipodi="http://sodipodi.sourceforge.net/DTD/sodipodi-0.dtd"
   xmlns:inkscape="http://www.inkscape.org/namespaces/inkscape"
   width="3840"
   height="2656.946"
   viewBox="0 0 1016 702.98366"
   version="1.1"
   id="svg6987"
   inkscape:version="0.92.3 (2405546, 2018-03-11)"
   sodipodi:docname="Vertical-White.svg">
  <defs
     id="defs6981">
    <filter
       inkscape:collect="always"
       style="color-interpolation-filters:sRGB"
       id="filter5074-9-9"
       x="-0.01916917"
       width="1.0383383"
       y="-0.031954315"
       height="1.0639086">
      <feGaussianBlur
         inkscape:collect="always"
         stdDeviation="0.078541963"
         id="feGaussianBlur5076-9-6" />
    </filter>
  </defs>
  <sodipodi:namedview
     id="base"
     pagecolor="#ffffff"
     bordercolor="#666666"
     borderopacity="1.0"
     inkscape:pageopacity="0.0"
     inkscape:pageshadow="2"
     inkscape:zoom="0.061871843"
     inkscape:cx="341.07624"
     inkscape:cy="1797.0666"
     inkscape:document-units="px"
     inkscape:current-layer="layer1"
     showgrid="false"
     units="px"
     inkscape:showpageshadow="false"
     inkscape:pagecheckerboard="true"
     inkscape:snap-page="true"
     inkscape:window-width="1366"
     inkscape:window-height="706"
     inkscape:window-x="-8"
     inkscape:window-y="-8"
     inkscape:window-maximized="1" />
  <metadata
     id="metadata6984">
    <rdf:RDF>
      <cc:Work
         rdf:about="">
        <dc:format>image/svg+xml</dc:format>
        <dc:type
           rdf:resource="http://purl.org/dc/dcmitype/StillImage" />
        <dc:title />
      </cc:Work>
    </rdf:RDF>
  </metadata>
  <g
     inkscape:label="Layer 1"
     inkscape:groupmode="layer"
     id="layer1"
     transform="translate(0,405.98363)">
    <g
       transform="matrix(108.86866,0,0,108.86866,-11048.684,-18922.312)"
       id="g6886">
      <g
         aria-label="SMOG  ALERT  APP"
         transform="matrix(0.99378813,0,0,1.0062507,-26.35908,-99.489287)"
         style="font-style:normal;font-variant:normal;font-weight:800;font-stretch:normal;font-size:1.83200896px;line-height:1.25;font-family:Nunito;-inkscape-font-specification:'Nunito Ultra-Bold';text-align:start;letter-spacing:0.79644251px;word-spacing:0px;text-anchor:start;opacity:0.3;fill:#000000;fill-opacity:1;stroke:#000000;stroke-width:0.18520834;stroke-miterlimit:4;stroke-dasharray:none;filter:url(#filter5074-9-9)"
         id="g6752">
        <path
           d="m 129.38009,269.54826 q -0.14473,0 -0.26931,-0.033 -0.12458,-0.0348 -0.20335,-0.0971 -0.0275,-0.0202 -0.0403,-0.0421 -0.011,-0.0238 -0.011,-0.0586 0,-0.0458 0.0275,-0.0806 0.0293,-0.0348 0.0659,-0.0348 0.0202,0 0.0385,0.007 0.0202,0.005 0.0476,0.022 0.0788,0.0495 0.15938,0.0733 0.0806,0.022 0.17771,0.022 0.12091,0 0.18503,-0.0403 0.0641,-0.0403 0.0641,-0.11542 0,-0.0568 -0.0605,-0.0916 -0.0586,-0.0348 -0.21068,-0.0659 -0.17037,-0.0348 -0.27297,-0.0843 -0.10076,-0.0495 -0.14839,-0.12275 -0.0458,-0.0733 -0.0458,-0.1777 0,-0.11542 0.0659,-0.20702 0.0678,-0.0934 0.18504,-0.14473 0.11908,-0.0531 0.26747,-0.0531 0.26014,0 0.42869,0.13008 0.0275,0.022 0.0385,0.0458 0.0128,0.022 0.0128,0.055 0,0.0458 -0.0293,0.0806 -0.0275,0.0348 -0.0641,0.0348 -0.0202,0 -0.0385,-0.005 -0.0165,-0.005 -0.0476,-0.0238 -0.0751,-0.0476 -0.13923,-0.0715 -0.0623,-0.0238 -0.15939,-0.0238 -0.11175,0 -0.17587,0.044 -0.0641,0.0421 -0.0641,0.11724 0,0.044 0.0238,0.0733 0.0256,0.0275 0.0824,0.0495 0.0586,0.022 0.16489,0.0458 0.24915,0.055 0.35724,0.14106 0.10992,0.0861 0.10992,0.23633 0,0.11725 -0.0659,0.20702 -0.0641,0.0898 -0.18321,0.13923 -0.11724,0.0495 -0.27296,0.0495 z"
           style="font-style:normal;font-variant:normal;font-weight:800;font-stretch:normal;font-family:Nunito;-inkscape-font-specification:'Nunito Ultra-Bold';text-align:start;letter-spacing:0.79644251px;text-anchor:start;fill:#000000;stroke:#000000;stroke-width:0.18520834;stroke-miterlimit:4;stroke-dasharray:none"
           id="path6728"
           inkscape:connector-curvature="0" />
        <path
           d="m 132.04956,268.23104 q 0.0604,0 0.0971,0.0403 0.0385,0.0385 0.0385,0.10076 v 1.04058 q 0,0.0605 -0.0348,0.0953 -0.0348,0.0348 -0.0916,0.0348 -0.055,0 -0.0898,-0.0348 -0.0348,-0.0348 -0.0348,-0.0953 v -0.6467 l -0.26015,0.48915 q -0.0256,0.0476 -0.0568,0.0696 -0.0293,0.022 -0.0714,0.022 -0.0403,0 -0.0714,-0.022 -0.0311,-0.022 -0.0568,-0.0696 l -0.26014,-0.47999 v 0.63754 q 0,0.0586 -0.0348,0.0953 -0.0348,0.0348 -0.0916,0.0348 -0.055,0 -0.0898,-0.0348 -0.0348,-0.0348 -0.0348,-0.0953 v -1.04058 q 0,-0.0623 0.0366,-0.10076 0.0385,-0.0403 0.0989,-0.0403 0.0879,0 0.13374,0.0934 l 0.3719,0.70533 0.37006,-0.70533 q 0.0495,-0.0934 0.13191,-0.0934 z"
           style="font-style:normal;font-variant:normal;font-weight:800;font-stretch:normal;font-family:Nunito;-inkscape-font-specification:'Nunito Ultra-Bold';text-align:start;letter-spacing:0.79644251px;text-anchor:start;fill:#000000;stroke:#000000;stroke-width:0.18520834;stroke-miterlimit:4;stroke-dasharray:none"
           id="path6730"
           inkscape:connector-curvature="0" />
        <path
           d="m 133.83491,269.54826 q -0.19236,0 -0.33526,-0.0806 -0.14106,-0.0824 -0.21801,-0.23083 -0.0769,-0.15023 -0.0769,-0.35175 0,-0.20152 0.0769,-0.34991 0.0769,-0.15023 0.21801,-0.23084 0.1429,-0.0806 0.33526,-0.0806 0.19236,0 0.33343,0.0806 0.14289,0.0806 0.21984,0.23084 0.0769,0.14839 0.0769,0.34991 0,0.20152 -0.0769,0.35175 -0.077,0.14839 -0.21984,0.23083 -0.14107,0.0806 -0.33343,0.0806 z m 0,-0.22168 q 0.16122,0 0.25282,-0.11358 0.0934,-0.11359 0.0934,-0.32793 0,-0.21435 -0.0916,-0.3261 -0.0916,-0.11358 -0.25465,-0.11358 -0.16305,0 -0.25465,0.11358 -0.0898,0.11175 -0.0898,0.3261 0,0.21434 0.0916,0.32793 0.0916,0.11358 0.25282,0.11358 z"
           style="font-style:normal;font-variant:normal;font-weight:800;font-stretch:normal;font-family:Nunito;-inkscape-font-specification:'Nunito Ultra-Bold';text-align:start;letter-spacing:0.79644251px;text-anchor:start;fill:#000000;stroke:#000000;stroke-width:0.18520834;stroke-miterlimit:4;stroke-dasharray:none"
           id="path6732"
           inkscape:connector-curvature="0" />
        <path
           d="m 136.47822,268.81912 q 0.0513,0 0.0806,0.0293 0.0311,0.0275 0.0311,0.0769 v 0.35725 q 0,0.0733 -0.0128,0.11358 -0.011,0.0403 -0.0403,0.0641 -0.0293,0.0238 -0.0879,0.0403 -0.0714,0.022 -0.16488,0.0348 -0.0916,0.0128 -0.17404,0.0128 -0.20519,0 -0.35541,-0.0788 -0.15023,-0.0806 -0.23084,-0.229 -0.0806,-0.15023 -0.0806,-0.35541 0,-0.20152 0.0788,-0.34991 0.0806,-0.15023 0.229,-0.23084 0.14839,-0.0806 0.34625,-0.0806 0.25465,0 0.42136,0.13191 0.0275,0.022 0.0385,0.044 0.011,0.022 0.011,0.055 0,0.0476 -0.0275,0.0824 -0.0257,0.033 -0.0623,0.033 -0.0238,0 -0.044,-0.007 -0.0183,-0.007 -0.0458,-0.0238 -0.0769,-0.0476 -0.14106,-0.0678 -0.0641,-0.0202 -0.14107,-0.0202 -0.37373,0 -0.37373,0.43419 0,0.2235 0.0971,0.33343 0.0971,0.10992 0.29312,0.10992 0.10626,0 0.21068,-0.0275 v -0.28397 h -0.16854 q -0.0531,0 -0.0824,-0.0256 -0.0293,-0.0256 -0.0293,-0.0733 0,-0.0476 0.0293,-0.0733 0.0293,-0.0256 0.0824,-0.0256 z"
           style="font-style:normal;font-variant:normal;font-weight:800;font-stretch:normal;font-family:Nunito;-inkscape-font-specification:'Nunito Ultra-Bold';text-align:start;letter-spacing:0.79644251px;text-anchor:start;fill:#000000;stroke:#000000;stroke-width:0.18520834;stroke-miterlimit:4;stroke-dasharray:none"
           id="path6734"
           inkscape:connector-curvature="0" />
        <path
           d="m 130.11838,271.64774 q 0.0147,0.033 0.0147,0.0586 0,0.0513 -0.0421,0.0879 -0.0403,0.0348 -0.0934,0.0348 -0.0348,0 -0.0659,-0.0183 -0.0311,-0.0202 -0.0476,-0.0586 l -0.0971,-0.21617 h -0.62105 l -0.0971,0.21617 q -0.0165,0.0385 -0.0476,0.0586 -0.0293,0.0183 -0.0659,0.0183 -0.0531,0 -0.0953,-0.0348 -0.0421,-0.0366 -0.0421,-0.0879 0,-0.0256 0.0147,-0.0586 l 0.49465,-1.03875 q 0.0201,-0.044 0.0604,-0.0659 0.0403,-0.0238 0.0861,-0.0238 0.0476,0 0.0879,0.0238 0.0403,0.0238 0.0623,0.0659 z m -0.85554,-0.32793 h 0.42685 l -0.21251,-0.47632 z"
           style="font-style:normal;font-variant:normal;font-weight:800;font-stretch:normal;font-family:Nunito;-inkscape-font-specification:'Nunito Ultra-Bold';text-align:start;letter-spacing:0.79644251px;text-anchor:start;fill:#000000;stroke:#000000;stroke-width:0.18520834;stroke-miterlimit:4;stroke-dasharray:none"
           id="path6736"
           inkscape:connector-curvature="0" />
        <path
           d="m 131.22252,271.82178 q -0.0641,0 -0.0989,-0.0348 -0.0348,-0.0348 -0.0348,-0.0989 v -1.02592 q 0,-0.0641 0.0385,-0.10259 0.0385,-0.0385 0.10443,-0.0385 0.0659,0 0.10442,0.0385 0.0385,0.0385 0.0385,0.10259 v 0.92699 h 0.46899 q 0.13374,0 0.13374,0.11725 0,0.11542 -0.13374,0.11542 z"
           style="font-style:normal;font-variant:normal;font-weight:800;font-stretch:normal;font-family:Nunito;-inkscape-font-specification:'Nunito Ultra-Bold';text-align:start;letter-spacing:0.79644251px;text-anchor:start;fill:#000000;stroke:#000000;stroke-width:0.18520834;stroke-miterlimit:4;stroke-dasharray:none"
           id="path6738"
           inkscape:connector-curvature="0" />
        <path
           d="m 133.04947,271.82178 q -0.0641,0 -0.0989,-0.0348 -0.0348,-0.0348 -0.0348,-0.0989 v -1.02409 q 0,-0.0641 0.0348,-0.0989 0.0348,-0.0348 0.0989,-0.0348 h 0.64853 q 0.13557,0 0.13557,0.10992 0,0.11176 -0.13557,0.11176 h -0.50381 v 0.30228 h 0.46717 q 0.13557,0 0.13557,0.11175 0,0.10992 -0.13557,0.10992 h -0.46717 v 0.32427 h 0.50381 q 0.13557,0 0.13557,0.11175 0,0.10992 -0.13557,0.10992 z"
           style="font-style:normal;font-variant:normal;font-weight:800;font-stretch:normal;font-family:Nunito;-inkscape-font-specification:'Nunito Ultra-Bold';text-align:start;letter-spacing:0.79644251px;text-anchor:start;fill:#000000;stroke:#000000;stroke-width:0.18520834;stroke-miterlimit:4;stroke-dasharray:none"
           id="path6740"
           inkscape:connector-curvature="0" />
        <path
           d="m 135.85883,271.64041 q 0.0275,0.0403 0.0275,0.0788 0,0.0513 -0.0421,0.0843 -0.0403,0.033 -0.0953,0.033 -0.0348,0 -0.0678,-0.0165 -0.033,-0.0165 -0.055,-0.0513 l -0.24182,-0.35907 q -0.0311,-0.0476 -0.066,-0.0678 -0.0348,-0.022 -0.0879,-0.022 h -0.14839 v 0.37007 q 0,0.0659 -0.0385,0.10442 -0.0366,0.0385 -0.10076,0.0385 -0.066,0 -0.10442,-0.0385 -0.0385,-0.0385 -0.0385,-0.10442 v -1.02593 q 0,-0.0641 0.0348,-0.0989 0.0348,-0.0348 0.0989,-0.0348 h 0.45984 q 0.22717,0 0.34258,0.10076 0.11725,0.0989 0.11725,0.28763 0,0.14839 -0.0824,0.24732 -0.0824,0.0989 -0.23266,0.13007 0.055,0.011 0.0971,0.044 0.044,0.0311 0.0843,0.0916 z m -0.50747,-0.53678 q 0.12275,0 0.17771,-0.0421 0.055,-0.044 0.055,-0.13557 0,-0.0934 -0.055,-0.13557 -0.055,-0.0421 -0.17771,-0.0421 h -0.27297 v 0.35541 z"
           style="font-style:normal;font-variant:normal;font-weight:800;font-stretch:normal;font-family:Nunito;-inkscape-font-specification:'Nunito Ultra-Bold';text-align:start;letter-spacing:0.79644251px;text-anchor:start;fill:#000000;stroke:#000000;stroke-width:0.18520834;stroke-miterlimit:4;stroke-dasharray:none"
           id="path6742"
           inkscape:connector-curvature="0" />
        <path
           d="m 137.28666,271.83094 q -0.0641,0 -0.10443,-0.0385 -0.0385,-0.0385 -0.0385,-0.10259 v -0.927 h -0.29679 q -0.13556,0 -0.13556,-0.11725 0,-0.11542 0.13556,-0.11542 h 0.87937 q 0.13557,0 0.13557,0.11542 0,0.11725 -0.13557,0.11725 h -0.29679 v 0.927 q 0,0.0641 -0.0385,0.10259 -0.0385,0.0385 -0.10442,0.0385 z"
           style="font-style:normal;font-variant:normal;font-weight:800;font-stretch:normal;font-family:Nunito;-inkscape-font-specification:'Nunito Ultra-Bold';text-align:start;letter-spacing:0.79644251px;text-anchor:start;fill:#000000;stroke:#000000;stroke-width:0.18520834;stroke-miterlimit:4;stroke-dasharray:none"
           id="path6744"
           inkscape:connector-curvature="0" />
        <path
           d="m 130.11838,273.93775 q 0.0147,0.033 0.0147,0.0586 0,0.0513 -0.0421,0.0879 -0.0403,0.0348 -0.0934,0.0348 -0.0348,0 -0.0659,-0.0183 -0.0311,-0.0202 -0.0476,-0.0586 l -0.0971,-0.21617 h -0.62105 l -0.0971,0.21617 q -0.0165,0.0385 -0.0476,0.0586 -0.0293,0.0183 -0.0659,0.0183 -0.0531,0 -0.0953,-0.0348 -0.0421,-0.0366 -0.0421,-0.0879 0,-0.0256 0.0147,-0.0586 l 0.49465,-1.03875 q 0.0201,-0.044 0.0604,-0.0659 0.0403,-0.0238 0.0861,-0.0238 0.0476,0 0.0879,0.0238 0.0403,0.0238 0.0623,0.0659 z m -0.85554,-0.32793 h 0.42685 l -0.21251,-0.47632 z"
           style="font-style:normal;font-variant:normal;font-weight:800;font-stretch:normal;font-family:Nunito;-inkscape-font-specification:'Nunito Ultra-Bold';text-align:start;letter-spacing:0.79644251px;text-anchor:start;fill:#000000;stroke:#000000;stroke-width:0.18520834;stroke-miterlimit:4;stroke-dasharray:none"
           id="path6746"
           inkscape:connector-curvature="0" />
        <path
           d="m 131.23168,274.12278 q -0.066,0 -0.10443,-0.0385 -0.0385,-0.0385 -0.0385,-0.10442 v -1.02593 q 0,-0.0641 0.0348,-0.0989 0.0348,-0.0348 0.0989,-0.0348 h 0.45983 q 0.21068,0 0.32793,0.10626 0.11725,0.10626 0.11725,0.29679 0,0.19053 -0.11725,0.29678 -0.11725,0.10626 -0.32793,0.10626 h -0.30777 v 0.35358 q 0,0.0659 -0.0385,0.10442 -0.0385,0.0385 -0.10442,0.0385 z m 0.41403,-0.71265 q 0.21435,0 0.21435,-0.18503 0,-0.18687 -0.21435,-0.18687 h -0.27113 v 0.3719 z"
           style="font-style:normal;font-variant:normal;font-weight:800;font-stretch:normal;font-family:Nunito;-inkscape-font-specification:'Nunito Ultra-Bold';text-align:start;letter-spacing:0.79644251px;text-anchor:start;fill:#000000;stroke:#000000;stroke-width:0.18520834;stroke-miterlimit:4;stroke-dasharray:none"
           id="path6748"
           inkscape:connector-curvature="0" />
        <path
           d="m 133.25185,274.12278 q -0.066,0 -0.10443,-0.0385 -0.0385,-0.0385 -0.0385,-0.10442 v -1.02593 q 0,-0.0641 0.0348,-0.0989 0.0348,-0.0348 0.0989,-0.0348 h 0.45983 q 0.21068,0 0.32793,0.10626 0.11725,0.10626 0.11725,0.29679 0,0.19053 -0.11725,0.29678 -0.11725,0.10626 -0.32793,0.10626 h -0.30778 v 0.35358 q 0,0.0659 -0.0385,0.10442 -0.0385,0.0385 -0.10442,0.0385 z m 0.41403,-0.71265 q 0.21435,0 0.21435,-0.18503 0,-0.18687 -0.21435,-0.18687 h -0.27114 v 0.3719 z"
           style="font-style:normal;font-variant:normal;font-weight:800;font-stretch:normal;font-family:Nunito;-inkscape-font-specification:'Nunito Ultra-Bold';text-align:start;letter-spacing:0.79644251px;text-anchor:start;fill:#000000;stroke:#000000;stroke-width:0.18520834;stroke-miterlimit:4;stroke-dasharray:none"
           id="path6750"
           inkscape:connector-curvature="0" />
      </g>
      <g
         aria-label="SMOG  ALERT  APP"
         transform="matrix(0.99378813,0,0,1.0062507,-180.843,-99.621867)"
         style="font-style:normal;font-variant:normal;font-weight:800;font-stretch:normal;font-size:1.83200896px;line-height:1.25;font-family:Nunito;-inkscape-font-specification:'Nunito Ultra-Bold';text-align:start;letter-spacing:0.79644251px;word-spacing:0px;text-anchor:start;fill:#ffffff;fill-opacity:1;stroke:#ffffff;stroke-width:0.13229166;stroke-miterlimit:4;stroke-dasharray:none;stroke-opacity:1"
         id="g6778">
        <path
           d="m 284.82965,269.41697 q -0.14472,0 -0.2693,-0.033 -0.12458,-0.0348 -0.20335,-0.0971 -0.0275,-0.0202 -0.0403,-0.0421 -0.011,-0.0238 -0.011,-0.0586 0,-0.0458 0.0275,-0.0806 0.0293,-0.0348 0.0659,-0.0348 0.0202,0 0.0385,0.007 0.0202,0.005 0.0476,0.022 0.0788,0.0495 0.15938,0.0733 0.0806,0.022 0.17771,0.022 0.12091,0 0.18503,-0.0403 0.0641,-0.0403 0.0641,-0.11541 0,-0.0568 -0.0605,-0.0916 -0.0586,-0.0348 -0.21068,-0.066 -0.17037,-0.0348 -0.27297,-0.0843 -0.10076,-0.0495 -0.14839,-0.12274 -0.0458,-0.0733 -0.0458,-0.17771 0,-0.11541 0.0659,-0.20702 0.0678,-0.0934 0.18504,-0.14472 0.11908,-0.0531 0.26747,-0.0531 0.26014,0 0.42869,0.13007 0.0275,0.022 0.0385,0.0458 0.0128,0.022 0.0128,0.055 0,0.0458 -0.0293,0.0806 -0.0275,0.0348 -0.0641,0.0348 -0.0202,0 -0.0385,-0.005 -0.0165,-0.005 -0.0476,-0.0238 -0.0751,-0.0476 -0.13923,-0.0715 -0.0623,-0.0238 -0.15939,-0.0238 -0.11175,0 -0.17587,0.044 -0.0641,0.0421 -0.0641,0.11725 0,0.044 0.0238,0.0733 0.0256,0.0275 0.0824,0.0495 0.0586,0.022 0.16489,0.0458 0.24915,0.055 0.35724,0.14107 0.10992,0.0861 0.10992,0.23633 0,0.11724 -0.066,0.20701 -0.0641,0.0898 -0.18321,0.13924 -0.11724,0.0495 -0.27297,0.0495 z"
           style="font-style:normal;font-variant:normal;font-weight:800;font-stretch:normal;font-family:Nunito;-inkscape-font-specification:'Nunito Ultra-Bold';text-align:start;letter-spacing:0.79644251px;text-anchor:start;fill:#ffffff;fill-opacity:1;stroke:#ffffff;stroke-width:0.13229166;stroke-miterlimit:4;stroke-dasharray:none;stroke-opacity:1"
           id="path6754"
           inkscape:connector-curvature="0" />
        <path
           d="m 287.49913,268.09976 q 0.0605,0 0.0971,0.0403 0.0385,0.0385 0.0385,0.10076 v 1.04058 q 0,0.0605 -0.0348,0.0953 -0.0348,0.0348 -0.0916,0.0348 -0.055,0 -0.0898,-0.0348 -0.0348,-0.0348 -0.0348,-0.0953 v -0.6467 l -0.26015,0.48915 q -0.0256,0.0476 -0.0568,0.0696 -0.0293,0.022 -0.0715,0.022 -0.0403,0 -0.0714,-0.022 -0.0312,-0.022 -0.0568,-0.0696 l -0.26014,-0.47999 v 0.63754 q 0,0.0586 -0.0348,0.0953 -0.0348,0.0348 -0.0916,0.0348 -0.055,0 -0.0898,-0.0348 -0.0348,-0.0348 -0.0348,-0.0953 v -1.04058 q 0,-0.0623 0.0366,-0.10076 0.0385,-0.0403 0.0989,-0.0403 0.0879,0 0.13374,0.0934 l 0.3719,0.70532 0.37006,-0.70532 q 0.0495,-0.0934 0.13191,-0.0934 z"
           style="font-style:normal;font-variant:normal;font-weight:800;font-stretch:normal;font-family:Nunito;-inkscape-font-specification:'Nunito Ultra-Bold';text-align:start;letter-spacing:0.79644251px;text-anchor:start;fill:#ffffff;fill-opacity:1;stroke:#ffffff;stroke-width:0.13229166;stroke-miterlimit:4;stroke-dasharray:none;stroke-opacity:1"
           id="path6756"
           inkscape:connector-curvature="0" />
        <path
           d="m 289.28448,269.41697 q -0.19236,0 -0.33526,-0.0806 -0.14106,-0.0824 -0.21801,-0.23083 -0.0769,-0.15023 -0.0769,-0.35175 0,-0.20152 0.0769,-0.34991 0.077,-0.15023 0.21801,-0.23083 0.1429,-0.0806 0.33526,-0.0806 0.19236,0 0.33343,0.0806 0.14289,0.0806 0.21984,0.23083 0.0769,0.14839 0.0769,0.34991 0,0.20152 -0.0769,0.35175 -0.077,0.14839 -0.21984,0.23083 -0.14107,0.0806 -0.33343,0.0806 z m 0,-0.22167 q 0.16122,0 0.25282,-0.11359 0.0934,-0.11358 0.0934,-0.32793 0,-0.21434 -0.0916,-0.32609 -0.0916,-0.11359 -0.25465,-0.11359 -0.16305,0 -0.25465,0.11359 -0.0898,0.11175 -0.0898,0.32609 0,0.21435 0.0916,0.32793 0.0916,0.11359 0.25282,0.11359 z"
           style="font-style:normal;font-variant:normal;font-weight:800;font-stretch:normal;font-family:Nunito;-inkscape-font-specification:'Nunito Ultra-Bold';text-align:start;letter-spacing:0.79644251px;text-anchor:start;fill:#ffffff;fill-opacity:1;stroke:#ffffff;stroke-width:0.13229166;stroke-miterlimit:4;stroke-dasharray:none;stroke-opacity:1"
           id="path6758"
           inkscape:connector-curvature="0" />
        <path
           d="m 291.92779,268.68783 q 0.0513,0 0.0806,0.0293 0.0311,0.0275 0.0311,0.077 v 0.35724 q 0,0.0733 -0.0128,0.11358 -0.011,0.0403 -0.0403,0.0641 -0.0293,0.0238 -0.0879,0.0403 -0.0715,0.022 -0.16488,0.0348 -0.0916,0.0128 -0.17404,0.0128 -0.20519,0 -0.35541,-0.0788 -0.15023,-0.0806 -0.23084,-0.229 -0.0806,-0.15022 -0.0806,-0.35541 0,-0.20152 0.0788,-0.34991 0.0806,-0.15023 0.229,-0.23083 0.14839,-0.0806 0.34625,-0.0806 0.25465,0 0.42136,0.1319 0.0275,0.022 0.0385,0.044 0.011,0.022 0.011,0.055 0,0.0476 -0.0275,0.0824 -0.0256,0.033 -0.0623,0.033 -0.0238,0 -0.044,-0.007 -0.0183,-0.007 -0.0458,-0.0238 -0.0769,-0.0476 -0.14106,-0.0678 -0.0641,-0.0202 -0.14107,-0.0202 -0.37373,0 -0.37373,0.43418 0,0.22351 0.0971,0.33343 0.0971,0.10992 0.29312,0.10992 0.10626,0 0.21068,-0.0275 v -0.28396 h -0.16854 q -0.0531,0 -0.0824,-0.0256 -0.0293,-0.0257 -0.0293,-0.0733 0,-0.0476 0.0293,-0.0733 0.0293,-0.0256 0.0824,-0.0256 z"
           style="font-style:normal;font-variant:normal;font-weight:800;font-stretch:normal;font-family:Nunito;-inkscape-font-specification:'Nunito Ultra-Bold';text-align:start;letter-spacing:0.79644251px;text-anchor:start;fill:#ffffff;fill-opacity:1;stroke:#ffffff;stroke-width:0.13229166;stroke-miterlimit:4;stroke-dasharray:none;stroke-opacity:1"
           id="path6760"
           inkscape:connector-curvature="0" />
        <path
           d="m 285.56795,271.51645 q 0.0147,0.033 0.0147,0.0586 0,0.0513 -0.0421,0.0879 -0.0403,0.0348 -0.0934,0.0348 -0.0348,0 -0.066,-0.0183 -0.0311,-0.0202 -0.0476,-0.0586 l -0.0971,-0.21618 h -0.62105 l -0.0971,0.21618 q -0.0165,0.0385 -0.0476,0.0586 -0.0293,0.0183 -0.0659,0.0183 -0.0531,0 -0.0953,-0.0348 -0.0421,-0.0366 -0.0421,-0.0879 0,-0.0257 0.0147,-0.0586 l 0.49465,-1.03875 q 0.0202,-0.044 0.0605,-0.066 0.0403,-0.0238 0.0861,-0.0238 0.0476,0 0.0879,0.0238 0.0403,0.0238 0.0623,0.066 z m -0.85554,-0.32793 h 0.42685 l -0.21251,-0.47632 z"
           style="font-style:normal;font-variant:normal;font-weight:800;font-stretch:normal;font-family:Nunito;-inkscape-font-specification:'Nunito Ultra-Bold';text-align:start;letter-spacing:0.79644251px;text-anchor:start;fill:#ffffff;fill-opacity:1;stroke:#ffffff;stroke-width:0.13229166;stroke-miterlimit:4;stroke-dasharray:none;stroke-opacity:1"
           id="path6762"
           inkscape:connector-curvature="0" />
        <path
           d="m 286.67209,271.69049 q -0.0641,0 -0.0989,-0.0348 -0.0348,-0.0348 -0.0348,-0.0989 v -1.02593 q 0,-0.0641 0.0385,-0.10259 0.0385,-0.0385 0.10443,-0.0385 0.066,0 0.10442,0.0385 0.0385,0.0385 0.0385,0.10259 v 0.927 h 0.46899 q 0.13374,0 0.13374,0.11725 0,0.11541 -0.13374,0.11541 z"
           style="font-style:normal;font-variant:normal;font-weight:800;font-stretch:normal;font-family:Nunito;-inkscape-font-specification:'Nunito Ultra-Bold';text-align:start;letter-spacing:0.79644251px;text-anchor:start;fill:#ffffff;fill-opacity:1;stroke:#ffffff;stroke-width:0.13229166;stroke-miterlimit:4;stroke-dasharray:none;stroke-opacity:1"
           id="path6764"
           inkscape:connector-curvature="0" />
        <path
           d="m 288.49904,271.69049 q -0.0641,0 -0.0989,-0.0348 -0.0348,-0.0348 -0.0348,-0.0989 v -1.0241 q 0,-0.0641 0.0348,-0.0989 0.0348,-0.0348 0.0989,-0.0348 h 0.64853 q 0.13557,0 0.13557,0.10992 0,0.11175 -0.13557,0.11175 h -0.50381 v 0.30228 h 0.46717 q 0.13557,0 0.13557,0.11175 0,0.10992 -0.13557,0.10992 h -0.46717 v 0.32427 h 0.50381 q 0.13557,0 0.13557,0.11175 0,0.10992 -0.13557,0.10992 z"
           style="font-style:normal;font-variant:normal;font-weight:800;font-stretch:normal;font-family:Nunito;-inkscape-font-specification:'Nunito Ultra-Bold';text-align:start;letter-spacing:0.79644251px;text-anchor:start;fill:#ffffff;fill-opacity:1;stroke:#ffffff;stroke-width:0.13229166;stroke-miterlimit:4;stroke-dasharray:none;stroke-opacity:1"
           id="path6766"
           inkscape:connector-curvature="0" />
        <path
           d="m 291.3084,271.50912 q 0.0275,0.0403 0.0275,0.0788 0,0.0513 -0.0421,0.0843 -0.0403,0.033 -0.0953,0.033 -0.0348,0 -0.0678,-0.0165 -0.033,-0.0165 -0.055,-0.0513 l -0.24182,-0.35908 q -0.0312,-0.0476 -0.0659,-0.0678 -0.0348,-0.022 -0.0879,-0.022 h -0.14839 v 0.37007 q 0,0.066 -0.0385,0.10442 -0.0366,0.0385 -0.10076,0.0385 -0.0659,0 -0.10442,-0.0385 -0.0385,-0.0385 -0.0385,-0.10442 v -1.02593 q 0,-0.0641 0.0348,-0.0989 0.0348,-0.0348 0.0989,-0.0348 h 0.45984 q 0.22717,0 0.34258,0.10076 0.11725,0.0989 0.11725,0.28762 0,0.1484 -0.0824,0.24732 -0.0824,0.0989 -0.23266,0.13008 0.055,0.011 0.0971,0.044 0.044,0.0311 0.0843,0.0916 z m -0.50747,-0.53677 q 0.12275,0 0.17771,-0.0421 0.055,-0.044 0.055,-0.13557 0,-0.0934 -0.055,-0.13557 -0.055,-0.0421 -0.17771,-0.0421 h -0.27297 v 0.35541 z"
           style="font-style:normal;font-variant:normal;font-weight:800;font-stretch:normal;font-family:Nunito;-inkscape-font-specification:'Nunito Ultra-Bold';text-align:start;letter-spacing:0.79644251px;text-anchor:start;fill:#ffffff;fill-opacity:1;stroke:#ffffff;stroke-width:0.13229166;stroke-miterlimit:4;stroke-dasharray:none;stroke-opacity:1"
           id="path6768"
           inkscape:connector-curvature="0" />
        <path
           d="m 292.73623,271.69965 q -0.0641,0 -0.10443,-0.0385 -0.0385,-0.0385 -0.0385,-0.10259 v -0.927 h -0.29679 q -0.13557,0 -0.13557,-0.11725 0,-0.11541 0.13557,-0.11541 h 0.87937 q 0.13557,0 0.13557,0.11541 0,0.11725 -0.13557,0.11725 h -0.29679 v 0.927 q 0,0.0641 -0.0385,0.10259 -0.0385,0.0385 -0.10442,0.0385 z"
           style="font-style:normal;font-variant:normal;font-weight:800;font-stretch:normal;font-family:Nunito;-inkscape-font-specification:'Nunito Ultra-Bold';text-align:start;letter-spacing:0.79644251px;text-anchor:start;fill:#ffffff;fill-opacity:1;stroke:#ffffff;stroke-width:0.13229166;stroke-miterlimit:4;stroke-dasharray:none;stroke-opacity:1"
           id="path6770"
           inkscape:connector-curvature="0" />
        <path
           d="m 285.56795,273.80646 q 0.0147,0.033 0.0147,0.0586 0,0.0513 -0.0421,0.0879 -0.0403,0.0348 -0.0934,0.0348 -0.0348,0 -0.066,-0.0183 -0.0311,-0.0202 -0.0476,-0.0586 l -0.0971,-0.21618 h -0.62105 l -0.0971,0.21618 q -0.0165,0.0385 -0.0476,0.0586 -0.0293,0.0183 -0.0659,0.0183 -0.0531,0 -0.0953,-0.0348 -0.0421,-0.0366 -0.0421,-0.0879 0,-0.0256 0.0147,-0.0586 l 0.49465,-1.03875 q 0.0202,-0.044 0.0605,-0.066 0.0403,-0.0238 0.0861,-0.0238 0.0476,0 0.0879,0.0238 0.0403,0.0238 0.0623,0.066 z m -0.85554,-0.32793 h 0.42685 l -0.21251,-0.47632 z"
           style="font-style:normal;font-variant:normal;font-weight:800;font-stretch:normal;font-family:Nunito;-inkscape-font-specification:'Nunito Ultra-Bold';text-align:start;letter-spacing:0.79644251px;text-anchor:start;fill:#ffffff;fill-opacity:1;stroke:#ffffff;stroke-width:0.13229166;stroke-miterlimit:4;stroke-dasharray:none;stroke-opacity:1"
           id="path6772"
           inkscape:connector-curvature="0" />
        <path
           d="m 286.68125,273.9915 q -0.0659,0 -0.10443,-0.0385 -0.0385,-0.0385 -0.0385,-0.10442 v -1.02593 q 0,-0.0641 0.0348,-0.0989 0.0348,-0.0348 0.0989,-0.0348 h 0.45983 q 0.21068,0 0.32793,0.10625 0.11725,0.10626 0.11725,0.29679 0,0.19053 -0.11725,0.29679 -0.11725,0.10625 -0.32793,0.10625 h -0.30777 v 0.35358 q 0,0.066 -0.0385,0.10442 -0.0385,0.0385 -0.10442,0.0385 z m 0.41403,-0.71265 q 0.21435,0 0.21435,-0.18504 0,-0.18686 -0.21435,-0.18686 h -0.27113 v 0.3719 z"
           style="font-style:normal;font-variant:normal;font-weight:800;font-stretch:normal;font-family:Nunito;-inkscape-font-specification:'Nunito Ultra-Bold';text-align:start;letter-spacing:0.79644251px;text-anchor:start;fill:#ffffff;fill-opacity:1;stroke:#ffffff;stroke-width:0.13229166;stroke-miterlimit:4;stroke-dasharray:none;stroke-opacity:1"
           id="path6774"
           inkscape:connector-curvature="0" />
        <path
           d="m 288.70142,273.9915 q -0.066,0 -0.10443,-0.0385 -0.0385,-0.0385 -0.0385,-0.10442 v -1.02593 q 0,-0.0641 0.0348,-0.0989 0.0348,-0.0348 0.0989,-0.0348 h 0.45983 q 0.21068,0 0.32793,0.10625 0.11725,0.10626 0.11725,0.29679 0,0.19053 -0.11725,0.29679 -0.11725,0.10625 -0.32793,0.10625 h -0.30778 v 0.35358 q 0,0.066 -0.0385,0.10442 -0.0385,0.0385 -0.10442,0.0385 z m 0.41403,-0.71265 q 0.21435,0 0.21435,-0.18504 0,-0.18686 -0.21435,-0.18686 h -0.27114 v 0.3719 z"
           style="font-style:normal;font-variant:normal;font-weight:800;font-stretch:normal;font-family:Nunito;-inkscape-font-specification:'Nunito Ultra-Bold';text-align:start;letter-spacing:0.79644251px;text-anchor:start;fill:#ffffff;fill-opacity:1;stroke:#ffffff;stroke-width:0.13229166;stroke-miterlimit:4;stroke-dasharray:none;stroke-opacity:1"
           id="path6776"
           inkscape:connector-curvature="0" />
      </g>
    </g>
  </g>
</svg>
