<?xml version="1.0" encoding="UTF-8" standalone="no"?>
<!-- Created with Inkscape (http://www.inkscape.org/) -->

<svg
   xmlns:dc="http://purl.org/dc/elements/1.1/"
   xmlns:cc="http://creativecommons.org/ns#"
   xmlns:rdf="http://www.w3.org/1999/02/22-rdf-syntax-ns#"
   xmlns:svg="http://www.w3.org/2000/svg"
   xmlns="http://www.w3.org/2000/svg"
   xmlns:xlink="http://www.w3.org/1999/xlink"
   xmlns:sodipodi="http://sodipodi.sourceforge.net/DTD/sodipodi-0.dtd"
   xmlns:inkscape="http://www.inkscape.org/namespaces/inkscape"
   width="2160"
   height="2160"
   viewBox="0 0 571.5 571.5"
   version="1.1"
   id="svg4640"
   inkscape:version="0.92.3 (2405546, 2018-03-11)"
   sodipodi:docname="App_Icon-Source_File.svg">
  <defs
     id="defs4634">
    <filter
       inkscape:collect="always"
       style="color-interpolation-filters:sRGB"
       id="filter6172-5"
       x="-0.024"
       width="1.048"
       y="-0.024"
       height="1.048">
      <feGaussianBlur
         inkscape:collect="always"
         stdDeviation="0.12283096"
         id="feGaussianBlur6174-8" />
    </filter>
    <linearGradient
       inkscape:collect="always"
       xlink:href="#linearGradient6188"
       id="linearGradient4342"
       gradientUnits="userSpaceOnUse"
       gradientTransform="matrix(0.9460783,0,0,0.94509638,104.43603,-181.71005)"
       x1="190.68568"
       y1="185.54726"
       x2="202.96878"
       y2="185.54726" />
    <linearGradient
       inkscape:collect="always"
       id="linearGradient6188">
      <stop
         style="stop-color:#e6e6e6;stop-opacity:1"
         offset="0"
         id="stop6184" />
      <stop
         style="stop-color:#cccccc;stop-opacity:1"
         offset="1"
         id="stop6186" />
    </linearGradient>
    <filter
       inkscape:collect="always"
       style="color-interpolation-filters:sRGB"
       id="filter4482"
       x="-0.030008102"
       width="1.0600162"
       y="-0.029991904"
       height="1.0599838">
      <feGaussianBlur
         inkscape:collect="always"
         stdDeviation="0.11808338"
         id="feGaussianBlur4484" />
    </filter>
    <linearGradient
       inkscape:collect="always"
       xlink:href="#linearGradient6196"
       id="linearGradient4344"
       gradientUnits="userSpaceOnUse"
       gradientTransform="matrix(0.94509638,0,0,0.9460783,-179.67071,115.10777)"
       x1="196.82829"
       y1="181.36198"
       x2="196.82835"
       y2="189.73264" />
    <linearGradient
       inkscape:collect="always"
       id="linearGradient6196">
      <stop
         id="stop6194"
         offset="0"
         style="stop-color:#4d4d4d;stop-opacity:1" />
      <stop
         id="stop6192"
         offset="1"
         style="stop-color:#333333;stop-opacity:1;" />
    </linearGradient>
    <filter
       inkscape:collect="always"
       style="color-interpolation-filters:sRGB"
       id="filter4467"
       x="-0.073426552"
       width="1.1468531"
       y="-0.05072654"
       height="1.1014531">
      <feGaussianBlur
         inkscape:collect="always"
         stdDeviation="0.12916985"
         id="feGaussianBlur4469" />
    </filter>
  </defs>
  <sodipodi:namedview
     id="base"
     pagecolor="#ffffff"
     bordercolor="#666666"
     borderopacity="1.0"
     inkscape:pageopacity="0.0"
     inkscape:pageshadow="2"
     inkscape:zoom="0.12374369"
     inkscape:cx="280.2182"
     inkscape:cy="1228.8192"
     inkscape:document-units="px"
     inkscape:current-layer="layer1"
     showgrid="false"
     showborder="true"
     units="px"
     inkscape:showpageshadow="false"
     inkscape:pagecheckerboard="true"
     inkscape:snap-page="true"
     inkscape:window-width="1366"
     inkscape:window-height="706"
     inkscape:window-x="-8"
     inkscape:window-y="-8"
     inkscape:window-maximized="1" />
  <metadata
     id="metadata4637">
    <rdf:RDF>
      <cc:Work
         rdf:about="">
        <dc:format>image/svg+xml</dc:format>
        <dc:type
           rdf:resource="http://purl.org/dc/dcmitype/StillImage" />
        <dc:title></dc:title>
      </cc:Work>
    </rdf:RDF>
  </metadata>
  <g
     inkscape:label="Layer 1"
     inkscape:groupmode="layer"
     id="layer1"
     transform="translate(0,274.5)">
    <g
       id="g5267"
       inkscape:export-filename="C:\Users\ABC\Desktop\CompanyLogoFiles\App Icon\App-Icon_2160p.png"
       inkscape:export-xdpi="4320"
       inkscape:export-ydpi="4320"
       transform="matrix(45.000001,0,0,45.000001,1.4910156e-4,-13068)">
      <rect
         transform="matrix(0.94509638,0,0,0.9460783,-161.66662,126.62233)"
         style="opacity:0.3;fill:#000000;fill-opacity:1;stroke:none;stroke-width:0.02798086;stroke-linecap:round;stroke-linejoin:round;stroke-miterlimit:4;stroke-dasharray:none;stroke-opacity:1;filter:url(#filter6172-5)"
         id="rect6039-6"
         width="12.283096"
         height="12.283096"
         x="171.63568"
         y="167.44641"
         rx="6.1415482"
         ry="6.1415482" />
      <rect
         transform="rotate(90)"
         ry="5.8043547"
         rx="5.8103857"
         y="-12.154354"
         x="284.8396"
         height="11.608709"
         width="11.620771"
         id="rect5950-4"
         style="opacity:1;fill:url(#linearGradient4342);fill-opacity:1;stroke:none;stroke-width:0.02645833;stroke-linecap:round;stroke-linejoin:round;stroke-miterlimit:4;stroke-dasharray:none;stroke-opacity:1" />
      <path
         transform="matrix(0.94509638,0,0,0.9460783,-161.66662,126.62233)"
         inkscape:connector-curvature="0"
         id="path5793-1"
         d="m 177.77764,168.86372 c -0.56366,0 -1.10409,0.22464 -1.50267,0.62321 a 0.2695206,0.2695206 0 0 0 -0.0848,0.16062 c -0.63202,-0.0744 -1.28227,0.12967 -1.75294,0.60034 -0.47096,0.47096 -0.67517,1.12174 -0.60036,1.75412 a 0.2695206,0.2695206 0 0 0 -0.16059,0.0836 c -0.41394,0.41394 -0.6208,0.95809 -0.6208,1.50267 0,0.54459 0.20686,1.09116 0.6208,1.50508 a 0.2695206,0.2695206 0 0 0 0.16059,0.0843 c -0.0741,0.63173 0.12993,1.28128 0.60036,1.75171 0.47171,0.47171 1.12381,0.67622 1.75714,0.60035 a 0.2695206,0.2695206 0 0 0 0.0805,0.16242 c 0.39858,0.39859 0.939,0.6208 1.50267,0.6208 0.56366,0 1.1047,-0.22221 1.50327,-0.6208 a 0.27008263,0.27008263 0 0 0 0.0769,-0.16301 c 0.63447,0.0771 1.28811,-0.12714 1.76074,-0.59976 0.47208,-0.47207 0.67612,-1.12452 0.59973,-1.75832 a 0.27008263,0.27008263 0 0 0 0.16122,-0.0776 c 0.41395,-0.41392 0.6202,-0.96049 0.6202,-1.50507 0,-0.54458 -0.20625,-1.08873 -0.6202,-1.50268 a 0.27008263,0.27008263 0 0 0 -0.16122,-0.0769 c 0.077,-0.63446 -0.12711,-1.28813 -0.59973,-1.76074 -0.47172,-0.47172 -1.12379,-0.67561 -1.75713,-0.59974 a 0.2695206,0.2695206 0 0 0 -0.0806,-0.16123 c -0.39857,-0.39857 -0.93961,-0.62321 -1.50327,-0.62321 z"
         style="color:#000000;font-style:normal;font-variant:normal;font-weight:normal;font-stretch:normal;font-size:medium;line-height:normal;font-family:sans-serif;font-variant-ligatures:normal;font-variant-position:normal;font-variant-caps:normal;font-variant-numeric:normal;font-variant-alternates:normal;font-feature-settings:normal;text-indent:0;text-align:start;text-decoration:none;text-decoration-line:none;text-decoration-style:solid;text-decoration-color:#000000;letter-spacing:normal;word-spacing:normal;text-transform:none;writing-mode:lr-tb;direction:ltr;text-orientation:mixed;dominant-baseline:auto;baseline-shift:baseline;text-anchor:start;white-space:normal;shape-padding:0;clip-rule:nonzero;display:inline;overflow:visible;visibility:visible;opacity:0.3;isolation:auto;mix-blend-mode:normal;color-interpolation:sRGB;color-interpolation-filters:linearRGB;solid-color:#000000;solid-opacity:1;vector-effect:none;fill:#000000;fill-opacity:1;fill-rule:nonzero;stroke:none;stroke-width:0.48966384;stroke-linecap:round;stroke-linejoin:round;stroke-miterlimit:4;stroke-dasharray:none;stroke-dashoffset:0;stroke-opacity:1;filter:url(#filter4482);color-rendering:auto;image-rendering:auto;shape-rendering:auto;text-rendering:auto;enable-background:accumulate" />
      <path
         style="color:#000000;font-style:normal;font-variant:normal;font-weight:normal;font-stretch:normal;font-size:medium;line-height:normal;font-family:sans-serif;font-variant-ligatures:normal;font-variant-position:normal;font-variant-caps:normal;font-variant-numeric:normal;font-variant-alternates:normal;font-feature-settings:normal;text-indent:0;text-align:start;text-decoration:none;text-decoration-line:none;text-decoration-style:solid;text-decoration-color:#000000;letter-spacing:normal;word-spacing:normal;text-transform:none;writing-mode:lr-tb;direction:ltr;text-orientation:mixed;dominant-baseline:auto;baseline-shift:baseline;text-anchor:start;white-space:normal;shape-padding:0;clip-rule:nonzero;display:inline;overflow:visible;visibility:visible;opacity:1;isolation:auto;mix-blend-mode:normal;color-interpolation:sRGB;color-interpolation-filters:linearRGB;solid-color:#000000;solid-opacity:1;vector-effect:none;fill:#1a1a1a;fill-opacity:1;fill-rule:nonzero;stroke:none;stroke-width:0.46301991;stroke-linecap:round;stroke-linejoin:round;stroke-miterlimit:4;stroke-dasharray:none;stroke-dashoffset:0;stroke-opacity:1;color-rendering:auto;image-rendering:auto;shape-rendering:auto;text-rendering:auto;enable-background:accumulate"
         d="m 6.351,286.18051 c -0.53267,0 -1.0434,0.21251 -1.42007,0.58957 a 0.25470652,0.25497115 0 0 0 -0.0801,0.15194 c -0.59729,-0.0704 -1.21179,0.12269 -1.65659,0.56795 -0.44507,0.44553 -0.63806,1.06118 -0.56736,1.65941 a 0.25470652,0.25497115 0 0 0 -0.15176,0.0791 c -0.39119,0.3916 -0.58667,0.90638 -0.58667,1.42156 0,0.51519 0.19548,1.03224 0.58667,1.42382 a 0.25470652,0.25497115 0 0 0 0.15176,0.0797 c -0.0701,0.59764 0.12279,1.2121 0.56736,1.65716 0.44579,0.44623 1.06203,0.63969 1.66056,0.56792 a 0.25470652,0.25497115 0 0 0 0.0761,0.15366 c 0.37666,0.37707 0.88739,0.58729 1.42006,0.58729 0.53268,0 1.04399,-0.21023 1.42065,-0.58729 a 0.25523765,0.25550284 0 0 0 0.0727,-0.15422 c 0.59959,0.0729 1.21731,-0.12027 1.66396,-0.56737 0.44612,-0.4466 0.63895,-1.06382 0.56677,-1.66341 a 0.25523765,0.25550284 0 0 0 0.15236,-0.0734 c 0.39119,-0.39158 0.58612,-0.90863 0.58612,-1.42383 0,-0.51517 -0.19493,-1.02995 -0.58612,-1.42154 a 0.25523765,0.25550284 0 0 0 -0.15236,-0.0727 c 0.0728,-0.60022 -0.12014,-1.2186 -0.56677,-1.6657 -0.44579,-0.44624 -1.06202,-0.63914 -1.66055,-0.56736 a 0.25470652,0.25497115 0 0 0 -0.0762,-0.15251 C 7.39487,286.3932 6.88356,286.18069 6.35088,286.18069 Z"
         id="path4242-9"
         inkscape:connector-curvature="0" />
      <path
         style="color:#000000;font-style:normal;font-variant:normal;font-weight:normal;font-stretch:normal;font-size:medium;line-height:normal;font-family:sans-serif;font-variant-ligatures:normal;font-variant-position:normal;font-variant-caps:normal;font-variant-numeric:normal;font-variant-alternates:normal;font-feature-settings:normal;text-indent:0;text-align:start;text-decoration:none;text-decoration-line:none;text-decoration-style:solid;text-decoration-color:#000000;letter-spacing:normal;word-spacing:normal;text-transform:none;writing-mode:lr-tb;direction:ltr;text-orientation:mixed;dominant-baseline:auto;baseline-shift:baseline;text-anchor:start;white-space:normal;shape-padding:0;clip-rule:nonzero;display:inline;overflow:visible;visibility:visible;opacity:1;isolation:auto;mix-blend-mode:normal;color-interpolation:sRGB;color-interpolation-filters:linearRGB;solid-color:#000000;solid-opacity:1;vector-effect:none;fill:url(#linearGradient4344);fill-opacity:1;fill-rule:nonzero;stroke:none;stroke-width:0.46301991;stroke-linecap:round;stroke-linejoin:round;stroke-miterlimit:4;stroke-dasharray:none;stroke-dashoffset:0;stroke-opacity:1;color-rendering:auto;image-rendering:auto;shape-rendering:auto;text-rendering:auto;enable-background:accumulate"
         d="m 6.351,286.69042 c 0.35905,0 0.69983,0.13584 0.9704,0.36819 -0.0804,0.0334 -0.16069,0.0676 -0.23761,0.1121 a 0.25490375,0.25516859 0 1 0 0.25354,0.44275 c 0.58881,-0.34031 1.33042,-0.24397 1.81119,0.23732 0.48077,0.48126 0.57701,1.22307 0.23705,1.81249 a 0.25470652,0.25497115 0 0 0 0.0529,0.32438 v -5.8e-4 a 0.25470652,0.25497115 0 0 0 0.38885,-0.0695 c 0.0454,-0.0787 0.0811,-0.16118 0.11484,-0.24357 0.48444,0.56258 0.48472,1.39148 5.8e-4,1.95421 -0.0339,-0.0829 -0.0698,-0.16546 -0.1154,-0.2447 a 0.25470652,0.25497115 0 0 0 -0.40704,-0.0518 0.25470652,0.25497115 0 0 0 -0.0335,0.3073 c 0.33997,0.58945 0.24258,1.33011 -0.23819,1.81138 -0.48077,0.48127 -1.22067,0.57874 -1.8095,0.23844 a 0.25483439,0.25509916 0 1 0 -0.25524,0.4416 c 0.0791,0.0457 0.16164,0.0811 0.24444,0.11496 -0.27113,0.23402 -0.61651,0.36421 -0.97722,0.36421 -0.36043,0 -0.70699,-0.12995 -0.97837,-0.36366 0.0834,-0.0342 0.16649,-0.07 0.24615,-0.11608 a 0.25470652,0.25497115 0 0 0 0.0688,-0.38755 0.25470652,0.25497115 0 0 0 -0.32404,-0.0535 c -0.58881,0.34032 -1.32871,0.24283 -1.80947,-0.23843 -0.4808,-0.48128 -0.57817,-1.22195 -0.23821,-1.81136 A 0.25470652,0.25497115 0 1 0 2.87537,291.3835 c -0.0461,0.0798 -0.0825,0.16283 -0.11653,0.24641 -0.48634,-0.56355 -0.48586,-1.395 9.4e-4,-1.9582 0.034,0.0832 0.0697,0.16643 0.11541,0.24584 a 0.25470652,0.25497115 0 1 0 0.44057,-0.25551 c -0.33995,-0.58943 -0.242,-1.3301 0.23877,-1.81137 0.48077,-0.48126 1.22067,-0.57932 1.80948,-0.23901 a 0.25470652,0.25497115 0 0 0 0.32461,-0.0517 0.25470652,0.25497115 0 0 0 -0.0693,-0.38925 c -0.0792,-0.0458 -0.16215,-0.0816 -0.24502,-0.11551 0.27113,-0.23308 0.61699,-0.36479 0.97665,-0.36479 z"
         id="path4197-5"
         inkscape:connector-curvature="0" />
      <path
         transform="matrix(0.94509638,0,0,0.9460783,-161.66662,126.62233)"
         inkscape:connector-curvature="0"
         id="path5788-6"
         d="m 177.77847,171.15596 c -1.1665,0 -2.11251,0.95728 -2.11251,2.13236 0,0.85249 0.51365,1.56331 0.99851,2.06198 0.48485,0.49866 0.97084,0.80061 0.97084,0.80061 a 0.26950322,0.26950322 0 0 0 0.28632,0 c 0,0 0.48596,-0.30195 0.97083,-0.80061 0.48486,-0.49867 0.99551,-1.20949 0.99551,-2.06198 0,-1.17508 -0.943,-2.13236 -2.1095,-2.13236 z m -6.1e-4,5.42503 c -0.18195,0 -0.32843,0.15275 -0.32843,0.34286 0,0.1901 0.14648,0.34346 0.32843,0.34346 0.18197,0 0.32843,-0.15336 0.32843,-0.34346 0,-0.19011 -0.14646,-0.34286 -0.32843,-0.34286 z"
         style="color:#000000;font-style:normal;font-variant:normal;font-weight:normal;font-stretch:normal;font-size:medium;line-height:normal;font-family:sans-serif;font-variant-ligatures:normal;font-variant-position:normal;font-variant-caps:normal;font-variant-numeric:normal;font-variant-alternates:normal;font-feature-settings:normal;text-indent:0;text-align:start;text-decoration:none;text-decoration-line:none;text-decoration-style:solid;text-decoration-color:#000000;letter-spacing:normal;word-spacing:normal;text-transform:none;writing-mode:lr-tb;direction:ltr;text-orientation:mixed;dominant-baseline:auto;baseline-shift:baseline;text-anchor:start;white-space:normal;shape-padding:0;clip-rule:nonzero;display:inline;overflow:visible;visibility:visible;opacity:0.3;isolation:auto;mix-blend-mode:normal;color-interpolation:sRGB;color-interpolation-filters:linearRGB;solid-color:#000000;solid-opacity:1;vector-effect:none;fill:#000000;fill-opacity:1;fill-rule:nonzero;stroke:none;stroke-width:0.48966384;stroke-linecap:round;stroke-linejoin:round;stroke-miterlimit:4;stroke-dasharray:none;stroke-dashoffset:0;stroke-opacity:1;filter:url(#filter4467);color-rendering:auto;image-rendering:auto;shape-rendering:auto;text-rendering:auto;enable-background:accumulate" />
      <path
         style="color:#000000;font-style:normal;font-variant:normal;font-weight:normal;font-stretch:normal;font-size:medium;line-height:normal;font-family:sans-serif;font-variant-ligatures:normal;font-variant-position:normal;font-variant-caps:normal;font-variant-numeric:normal;font-variant-alternates:normal;font-feature-settings:normal;text-indent:0;text-align:start;text-decoration:none;text-decoration-line:none;text-decoration-style:solid;text-decoration-color:#000000;letter-spacing:normal;word-spacing:normal;text-transform:none;writing-mode:lr-tb;direction:ltr;text-orientation:mixed;dominant-baseline:auto;baseline-shift:baseline;text-anchor:start;white-space:normal;shape-padding:0;clip-rule:nonzero;display:inline;overflow:visible;visibility:visible;opacity:1;isolation:auto;mix-blend-mode:normal;color-interpolation:sRGB;color-interpolation-filters:linearRGB;solid-color:#000000;solid-opacity:1;vector-effect:none;fill:#1a1a1a;fill-opacity:1;fill-rule:nonzero;stroke:none;stroke-width:0.46301991;stroke-linecap:round;stroke-linejoin:round;stroke-miterlimit:4;stroke-dasharray:none;stroke-dashoffset:0;stroke-opacity:1;color-rendering:auto;image-rendering:auto;shape-rendering:auto;text-rendering:auto;enable-background:accumulate"
         d="m 6.35117,288.34885 c -1.10246,0 -1.99606,0.90578 -1.99606,2.01749 0,0.80652 0.48501,1.47904 0.94325,1.95082 0.45823,0.47176 0.91745,0.7571 0.91745,0.7571 a 0.25470652,0.25497115 0 0 0 0.27072,0 c 0,0 0.45922,-0.28534 0.91746,-0.7571 0.45824,-0.47178 0.94109,-1.1443 0.94109,-1.95082 0,-1.11171 -0.89145,-2.01749 -1.99391,-2.01749 z"
         id="path4255-3"
         inkscape:connector-curvature="0" />
      <path
         style="color:#000000;font-style:normal;font-variant:normal;font-weight:normal;font-stretch:normal;font-size:medium;line-height:normal;font-family:sans-serif;font-variant-ligatures:normal;font-variant-position:normal;font-variant-caps:normal;font-variant-numeric:normal;font-variant-alternates:normal;font-feature-settings:normal;text-indent:0;text-align:start;text-decoration:none;text-decoration-line:none;text-decoration-style:solid;text-decoration-color:#000000;letter-spacing:normal;word-spacing:normal;text-transform:none;writing-mode:lr-tb;direction:ltr;text-orientation:mixed;dominant-baseline:auto;baseline-shift:baseline;text-anchor:start;white-space:normal;shape-padding:0;clip-rule:nonzero;display:inline;overflow:visible;visibility:visible;opacity:1;isolation:auto;mix-blend-mode:normal;color-interpolation:sRGB;color-interpolation-filters:linearRGB;solid-color:#000000;solid-opacity:1;vector-effect:none;fill:#ff2a2a;fill-opacity:1;fill-rule:nonzero;stroke:none;stroke-width:0.46301991;stroke-linecap:round;stroke-linejoin:round;stroke-miterlimit:4;stroke-dasharray:none;stroke-dashoffset:0;stroke-opacity:1;color-rendering:auto;image-rendering:auto;shape-rendering:auto;text-rendering:auto;enable-background:accumulate"
         d="m 6.35117,288.8586 c 0.82584,0 1.48468,0.66654 1.48468,1.50774 0,0.59528 -0.38516,1.16965 -0.79712,1.59378 -0.34437,0.35452 -0.58408,0.50336 -0.68756,0.57212 -0.10352,-0.0687 -0.34319,-0.2176 -0.68754,-0.57212 -0.41198,-0.42414 -0.79931,-0.9985 -0.79931,-1.59378 0,-0.8412 0.66099,-1.50774 1.48685,-1.50774 z"
         id="path4213-7"
         inkscape:connector-curvature="0" />
      <path
         id="path4215-1"
         d="m 6.35115,289.46152 c -0.49351,0 -0.8965,0.41063 -0.8965,0.90497 0,0.49436 0.40299,0.90497 0.8965,0.90497 0.49351,0 0.89593,-0.41061 0.89593,-0.90497 0,-0.49434 -0.40242,-0.90497 -0.89593,-0.90497 z"
         style="color:#000000;font-style:normal;font-variant:normal;font-weight:normal;font-stretch:normal;font-size:medium;line-height:normal;font-family:sans-serif;font-variant-ligatures:normal;font-variant-position:normal;font-variant-caps:normal;font-variant-numeric:normal;font-variant-alternates:normal;font-feature-settings:normal;text-indent:0;text-align:start;text-decoration:none;text-decoration-line:none;text-decoration-style:solid;text-decoration-color:#000000;letter-spacing:normal;word-spacing:normal;text-transform:none;writing-mode:lr-tb;direction:ltr;text-orientation:mixed;dominant-baseline:auto;baseline-shift:baseline;text-anchor:start;white-space:normal;shape-padding:0;clip-rule:nonzero;display:inline;overflow:visible;visibility:visible;opacity:1;isolation:auto;mix-blend-mode:normal;color-interpolation:sRGB;color-interpolation-filters:linearRGB;solid-color:#000000;solid-opacity:1;vector-effect:none;fill:#141414;fill-opacity:1;fill-rule:nonzero;stroke:none;stroke-width:0.46301985;stroke-linecap:round;stroke-linejoin:round;stroke-miterlimit:4;stroke-dasharray:none;stroke-dashoffset:0;stroke-opacity:1;color-rendering:auto;image-rendering:auto;shape-rendering:auto;text-rendering:auto;enable-background:accumulate"
         inkscape:connector-curvature="0" />
      <path
         id="path4217-1"
         d="m 6.35088,293.48111 c 0.17198,0 0.31045,0.14479 0.31045,0.32464 0,0.17985 -0.13847,0.32463 -0.31045,0.32463 -0.17197,0 -0.31043,-0.14478 -0.31043,-0.32463 0,-0.17985 0.13846,-0.32464 0.31043,-0.32464 z"
         style="opacity:1;vector-effect:none;fill:#1a1a1a;fill-opacity:1;stroke:none;stroke-width:0.38574299;stroke-linecap:round;stroke-linejoin:round;stroke-miterlimit:4;stroke-dasharray:none;stroke-dashoffset:0;stroke-opacity:1"
         inkscape:connector-curvature="0" />
      <path
         inkscape:connector-curvature="0"
         style="color:#000000;font-style:normal;font-variant:normal;font-weight:normal;font-stretch:normal;font-size:medium;line-height:normal;font-family:sans-serif;font-variant-ligatures:normal;font-variant-position:normal;font-variant-caps:normal;font-variant-numeric:normal;font-variant-alternates:normal;font-feature-settings:normal;text-indent:0;text-align:start;text-decoration:none;text-decoration-line:none;text-decoration-style:solid;text-decoration-color:#000000;letter-spacing:normal;word-spacing:normal;text-transform:none;writing-mode:lr-tb;direction:ltr;text-orientation:mixed;dominant-baseline:auto;baseline-shift:baseline;text-anchor:start;white-space:normal;shape-padding:0;clip-rule:nonzero;display:inline;overflow:visible;visibility:visible;opacity:1;isolation:auto;mix-blend-mode:normal;color-interpolation:sRGB;color-interpolation-filters:linearRGB;solid-color:#000000;solid-opacity:1;vector-effect:none;fill:#ffffff;fill-opacity:1;fill-rule:nonzero;stroke:none;stroke-width:0.46301991;stroke-linecap:round;stroke-linejoin:round;stroke-miterlimit:4;stroke-dasharray:none;stroke-dashoffset:0;stroke-opacity:1;color-rendering:auto;image-rendering:auto;shape-rendering:auto;text-rendering:auto;enable-background:accumulate"
         d="m 6.47962,289.85239 c -0.20513,0 -0.37263,0.17067 -0.37263,0.37614 0,0.20547 0.1675,0.37615 0.37263,0.37615 0.20512,0 0.37236,-0.17068 0.37236,-0.37615 0,-0.20547 -0.16724,-0.37614 -0.37236,-0.37614 z"
         id="path4219-6" />
      <rect
         y="284.29999"
         x="-3.3886718e-006"
         height="12.7"
         width="12.7"
         id="rect4499-9"
         style="opacity:0;fill:#ff0000;fill-opacity:0;stroke:none;stroke-width:64.99999237;stroke-linecap:round;stroke-linejoin:round;stroke-miterlimit:4;stroke-dasharray:none;stroke-opacity:1" />
    </g>
  </g>
</svg>
