<?xml version="1.0" encoding="UTF-8" standalone="no"?>
<!-- Created with Inkscape (http://www.inkscape.org/) -->

<svg
   xmlns:dc="http://purl.org/dc/elements/1.1/"
   xmlns:cc="http://creativecommons.org/ns#"
   xmlns:rdf="http://www.w3.org/1999/02/22-rdf-syntax-ns#"
   xmlns:svg="http://www.w3.org/2000/svg"
   xmlns="http://www.w3.org/2000/svg"
   xmlns:sodipodi="http://sodipodi.sourceforge.net/DTD/sodipodi-0.dtd"
   xmlns:inkscape="http://www.inkscape.org/namespaces/inkscape"
   width="2160"
   height="2160"
   viewBox="0 0 571.5 571.5"
   version="1.1"
   id="svg4703"
   inkscape:version="0.92.3 (2405546, 2018-03-11)"
   sodipodi:docname="Monotone-Black.svg">
  <defs
     id="defs4697" />
  <sodipodi:namedview
     id="base"
     pagecolor="#ffffff"
     bordercolor="#666666"
     borderopacity="1.0"
     inkscape:pageopacity="0.0"
     inkscape:pageshadow="2"
     inkscape:zoom="0.12374369"
     inkscape:cx="313.15031"
     inkscape:cy="1547.5625"
     inkscape:document-units="px"
     inkscape:current-layer="layer1"
     showgrid="false"
     inkscape:showpageshadow="false"
     units="px"
     inkscape:pagecheckerboard="true"
     inkscape:snap-page="true"
     inkscape:window-width="1366"
     inkscape:window-height="706"
     inkscape:window-x="-8"
     inkscape:window-y="-8"
     inkscape:window-maximized="1" />
  <metadata
     id="metadata4700">
    <rdf:RDF>
      <cc:Work
         rdf:about="">
        <dc:format>image/svg+xml</dc:format>
        <dc:type
           rdf:resource="http://purl.org/dc/dcmitype/StillImage" />
        <dc:title></dc:title>
      </cc:Work>
    </rdf:RDF>
  </metadata>
  <g
     inkscape:label="Layer 1"
     inkscape:groupmode="layer"
     id="layer1"
     transform="translate(0,274.50001)">
    <g
       id="g6835"
       transform="matrix(45.000001,0,0,45.000001,-12132.632,-11281.145)">
      <path
         style="color:#000000;font-style:normal;font-variant:normal;font-weight:normal;font-stretch:normal;font-size:medium;line-height:normal;font-family:sans-serif;font-variant-ligatures:normal;font-variant-position:normal;font-variant-caps:normal;font-variant-numeric:normal;font-variant-alternates:normal;font-feature-settings:normal;text-indent:0;text-align:start;text-decoration:none;text-decoration-line:none;text-decoration-style:solid;text-decoration-color:#000000;letter-spacing:normal;word-spacing:normal;text-transform:none;writing-mode:lr-tb;direction:ltr;text-orientation:mixed;dominant-baseline:auto;baseline-shift:baseline;text-anchor:start;white-space:normal;shape-padding:0;clip-rule:nonzero;display:inline;overflow:visible;visibility:visible;opacity:1;isolation:auto;mix-blend-mode:normal;color-interpolation:sRGB;color-interpolation-filters:linearRGB;solid-color:#000000;solid-opacity:1;vector-effect:none;fill:#1a1a1a;fill-opacity:1;fill-rule:nonzero;stroke:none;stroke-width:1.7499963;stroke-linecap:round;stroke-linejoin:round;stroke-miterlimit:4;stroke-dasharray:none;stroke-dashoffset:0;stroke-opacity:1;color-rendering:auto;image-rendering:auto;shape-rendering:auto;text-rendering:auto;enable-background:accumulate"
         d="m 1043.0176,524.25781 c -2.594,0 -5.0798,1.02964 -6.9141,2.85742 a 1.2403662,1.2359513 0 0 0 -0.3906,0.73633 c -2.9087,-0.34129 -5.9003,0.59557 -8.0664,2.75391 -2.1674,2.1597 -3.108,5.14313 -2.7637,8.04297 a 1.2403662,1.2359513 0 0 0 -0.7383,0.38476 c -1.905,1.89827 -2.8574,4.39331 -2.8574,6.89063 0,2.49732 0.9524,5.00223 2.8574,6.90039 a 1.2403662,1.2359513 0 0 0 0.7383,0.38672 c -0.3417,2.89701 0.5987,5.87581 2.7637,8.0332 2.1709,2.16306 5.1712,3.10181 8.0859,2.75391 a 1.2403662,1.2359513 0 0 0 0.3711,0.74414 c 1.8343,1.82781 4.3201,2.84765 6.9141,2.84765 2.5941,0 5.0857,-1.01987 6.9199,-2.84765 a 1.2429526,1.2385287 0 0 0 0.3535,-0.74805 c 2.9199,0.35339 5.9285,-0.5827 8.1035,-2.75 2.1725,-2.16487 3.1113,-5.15604 2.7598,-8.0625 a 1.2429526,1.2385287 0 0 0 0.7422,-0.35742 c 1.905,-1.89812 2.8535,-4.40303 2.8535,-6.90039 0,-2.49729 -0.9485,-4.9924 -2.8535,-6.89063 a 1.2429526,1.2385287 0 0 0 -0.7422,-0.35351 c 0.3545,-2.90952 -0.5848,-5.90693 -2.7598,-8.07422 -2.1709,-2.16314 -5.1731,-3.09794 -8.0879,-2.75 a 1.2403662,1.2359513 0 0 0 -0.3711,-0.74024 c -1.8342,-1.82778 -4.3239,-2.85742 -6.9179,-2.85742 z m 0,2.47071 c 1.7485,0 3.4089,0.65889 4.7265,1.78515 -0.3915,0.16214 -0.7816,0.32727 -1.1562,0.54297 a 1.2413796,1.2369612 0 0 0 1.2344,2.14648 c 2.8673,-1.64961 6.479,-1.18263 8.8203,1.1504 2.3412,2.33283 2.8098,5.92993 1.1543,8.7871 a 1.2403662,1.2359513 0 0 0 0.2578,1.57227 v -0.004 a 1.2403662,1.2359513 0 0 0 1.8926,-0.33593 c 0.2211,-0.38151 0.3962,-0.78226 0.5605,-1.18164 2.3591,2.72704 2.3596,6.74489 0,9.47265 -0.1652,-0.40184 -0.3407,-0.80143 -0.5625,-1.18554 a 1.2403662,1.2359513 0 0 0 -1.9825,-0.25196 1.2403662,1.2359513 0 0 0 -0.1621,1.49024 c 1.6556,2.85732 1.1811,6.44833 -1.1601,8.78125 -2.3413,2.33291 -5.945,2.80578 -8.8125,1.15625 a 1.2409889,1.2365719 0 1 0 -1.2422,2.13867 c 0.3852,0.22148 0.7862,0.39449 1.1894,0.55859 -1.3203,1.13439 -3.0012,1.76563 -4.7578,1.76563 -1.7552,0 -3.444,-0.6308 -4.7656,-1.76367 0.4061,-0.16555 0.8113,-0.33921 1.1992,-0.5625 a 1.2403662,1.2359513 0 0 0 0.334,-1.87891 1.2403662,1.2359513 0 0 0 -1.5762,-0.25977 c -2.8673,1.64965 -6.4713,1.17858 -8.8125,-1.15429 -2.3413,-2.33295 -2.8157,-5.92416 -1.1601,-8.78125 a 1.2403662,1.2359513 0 1 0 -2.1465,-1.23828 c -0.2245,0.38679 -0.4007,0.79018 -0.5664,1.19531 -2.3684,-2.73177 -2.3658,-6.76212 0,-9.49219 0.1655,0.40331 0.3399,0.8065 0.5625,1.19141 a 1.2403662,1.2359513 0 1 0 2.1445,-1.23828 c -1.6555,-2.85725 -1.1791,-6.44834 1.1621,-8.78125 2.3413,-2.33292 5.9452,-2.80786 8.8125,-1.15821 a 1.2403662,1.2359513 0 0 0 1.5801,-0.25195 1.2403662,1.2359513 0 0 0 -0.3359,-1.88672 c -0.3857,-0.22186 -0.7898,-0.39422 -1.1934,-0.55859 1.3204,-1.12986 3.0044,-1.76953 4.7559,-1.76953 z m 0,8.03906 c -5.3687,0 -9.7207,4.39232 -9.7207,9.78125 0,3.90954 2.3622,7.16812 4.5938,9.45508 2.2314,2.28676 4.4668,3.66992 4.4668,3.66992 a 1.2403662,1.2359513 0 0 0 1.3183,0 c 0,0 2.2373,-1.38316 4.4688,-3.66992 2.2316,-2.28696 4.582,-5.54554 4.582,-9.45508 0,-5.38893 -4.3402,-9.78125 -9.709,-9.78125 z m 0,2.47265 c 4.0217,0 7.2305,3.23098 7.2305,7.3086 0,2.88559 -1.8767,5.6687 -3.8828,7.72461 -1.677,1.71851 -2.8437,2.44011 -3.3477,2.77344 -0.504,-0.33299 -1.6707,-1.05493 -3.3476,-2.77344 -2.0063,-2.05595 -3.8926,-4.83902 -3.8926,-7.72461 0,-4.07762 3.2185,-7.3086 7.2402,-7.3086 z m 0,2.92188 c -2.4033,0 -4.3652,1.99046 -4.3652,4.38672 0,2.39633 1.9619,4.38672 4.3652,4.38672 2.4033,0 4.3633,-1.99039 4.3633,-4.38672 0,-2.39626 -1.96,-4.38672 -4.3633,-4.38672 z m 0.625,1.89453 c 0.9989,0 1.8145,0.82824 1.8145,1.82422 0,0.99598 -0.8156,1.82226 -1.8145,1.82226 -0.9989,0 -1.8144,-0.82628 -1.8144,-1.82226 0,-0.99598 0.8155,-1.82422 1.8144,-1.82422 z m -0.6269,17.58984 c -0.8375,0 -1.5117,0.7024 -1.5117,1.57422 0,0.87183 0.6742,1.57227 1.5117,1.57227 0.8375,0 1.5117,-0.70044 1.5117,-1.57227 0,-0.87182 -0.6742,-1.57422 -1.5117,-1.57422 z"
         transform="matrix(0.26458334,0,0,0.26458334,0,106.49999)"
         id="path6831"
         inkscape:connector-curvature="0" />
      <rect
         y="244.5921"
         x="269.61404"
         height="12.7"
         width="12.7"
         id="rect6833"
         style="opacity:0;fill:#ff0000;fill-opacity:0;stroke:none;stroke-width:64.99999237;stroke-linecap:round;stroke-linejoin:round;stroke-miterlimit:4;stroke-dasharray:none;stroke-opacity:1" />
    </g>
  </g>
</svg>
